<svg width="11" height="22" viewBox="0 0 11 22" fill="none" xmlns="http://www.w3.org/2000/svg">
<path d="M9.73946 22C9.61882 22.0007 9.49923 21.9775 9.38754 21.9319C9.27586 21.8863 9.17428 21.8191 9.08862 21.7341L1.59946 14.245C1.17263 13.8192 0.833984 13.3134 0.602925 12.7566C0.371865 12.1998 0.25293 11.6028 0.25293 11C0.25293 10.3971 0.371865 9.80015 0.602925 9.24332C0.833984 8.68649 1.17263 8.18072 1.59946 7.75496L9.08862 0.2658C9.17409 0.180331 9.27556 0.112534 9.38723 0.0662784C9.4989 0.0200231 9.61859 -0.00378418 9.73946 -0.00378418C9.86033 -0.00378418 9.98001 0.0200231 10.0917 0.0662784C10.2034 0.112534 10.3048 0.180331 10.3903 0.2658C10.4758 0.351268 10.5436 0.452734 10.5898 0.564405C10.6361 0.676075 10.6599 0.795762 10.6599 0.916633C10.6599 1.0375 10.6361 1.15719 10.5898 1.26886C10.5436 1.38053 10.4758 1.482 10.3903 1.56747L2.90112 9.05663C2.38614 9.57226 2.09688 10.2712 2.09688 11C2.09688 11.7287 2.38614 12.4277 2.90112 12.9433L10.3903 20.4325C10.4762 20.5177 10.5444 20.6191 10.5909 20.7308C10.6375 20.8425 10.6614 20.9623 10.6614 21.0833C10.6614 21.2043 10.6375 21.3241 10.5909 21.4358C10.5444 21.5475 10.4762 21.6489 10.3903 21.7341C10.3046 21.8191 10.2031 21.8863 10.0914 21.9319C9.97969 21.9775 9.8601 22.0007 9.73946 22Z" fill="#DFDFDF"/>
</svg>
