<svg width="11" height="22" viewBox="0 0 11 22" fill="none" xmlns="http://www.w3.org/2000/svg">
<path d="M1.26054 4.00543e-05C1.38118 -0.000656128 1.50077 0.0224648 1.61246 0.0680828C1.72414 0.113701 1.82572 0.180916 1.91138 0.265875L9.40054 7.75504C9.82737 8.18079 10.166 8.68657 10.3971 9.2434C10.6281 9.80023 10.7471 10.3972 10.7471 11C10.7471 11.6029 10.6281 12.1998 10.3971 12.7567C10.166 13.3135 9.82737 13.8193 9.40054 14.245L1.91138 21.7342C1.82591 21.8197 1.72444 21.8875 1.61277 21.9337C1.5011 21.98 1.38141 22.0038 1.26054 22.0038C1.13967 22.0038 1.01999 21.98 0.908316 21.9337C0.796645 21.8875 0.69518 21.8197 0.609711 21.7342C0.524242 21.6487 0.456444 21.5473 0.410189 21.4356C0.363934 21.3239 0.340127 21.2042 0.340127 21.0834C0.340127 20.9625 0.363934 20.8428 0.410189 20.7311C0.456444 20.6195 0.524242 20.518 0.609711 20.4325L8.09888 12.9434C8.61386 12.4277 8.90312 11.7288 8.90312 11C8.90312 10.2713 8.61386 9.57233 8.09888 9.0567L0.609711 1.56754C0.523793 1.48232 0.455597 1.38094 0.40906 1.26924C0.362521 1.15753 0.338562 1.03772 0.338562 0.916706C0.338562 0.795696 0.362521 0.675882 0.40906 0.564178C0.455597 0.452475 0.523793 0.351091 0.609711 0.265875C0.695365 0.180916 0.796945 0.113701 0.908628 0.0680828C1.02031 0.0224648 1.1399 -0.000656128 1.26054 4.00543e-05Z" fill="#DFDFDF"/>
</svg>
