<svg width="7" height="7" viewBox="0 0 7 7" fill="none" xmlns="http://www.w3.org/2000/svg">
<path d="M7 3.5C6.99756 3.23695 6.89157 2.98545 6.705 2.8L4.56 0.650005C4.46632 0.556879 4.33959 0.504608 4.2075 0.504608C4.07541 0.504608 3.94868 0.556879 3.855 0.650005C3.80813 0.696486 3.77094 0.751787 3.74555 0.812716C3.72017 0.873646 3.7071 0.938999 3.7071 1.005C3.7071 1.07101 3.72017 1.13636 3.74555 1.19729C3.77094 1.25822 3.80813 1.31352 3.855 1.36L5.5 3H0.5C0.367392 3 0.240215 3.05268 0.146447 3.14645C0.0526785 3.24022 0 3.3674 0 3.5C0 3.63261 0.0526785 3.75979 0.146447 3.85356C0.240215 3.94733 0.367392 4 0.5 4H5.5L3.855 5.64501C3.76085 5.73849 3.70769 5.86555 3.70722 5.99824C3.70675 6.13092 3.75901 6.25835 3.8525 6.3525C3.94599 6.44666 4.07305 6.49981 4.20573 6.50028C4.33841 6.50075 4.46585 6.44849 4.56 6.355L6.705 4.205C6.89279 4.01833 6.99888 3.76479 7 3.5Z" fill="#C9C9C9"/>
</svg>
