<svg width="16" height="8" viewBox="0 0 16 8" fill="none" xmlns="http://www.w3.org/2000/svg">
<path d="M7.99994 7.30879C7.61666 7.30947 7.23701 7.23461 6.88268 7.08847C6.52835 6.94234 6.2063 6.7278 5.93494 6.45712L1.16911 1.69129C1.05927 1.58145 0.997559 1.43247 0.997559 1.27713C0.997559 1.12178 1.05927 0.972803 1.16911 0.86296C1.27896 0.753116 1.42794 0.691406 1.58328 0.691406C1.73862 0.691406 1.8876 0.753116 1.99744 0.86296L6.76327 5.62879C7.0914 5.95651 7.53619 6.14058 7.99994 6.14058C8.46369 6.14058 8.90848 5.95651 9.23661 5.62879L14.0024 0.86296C14.1123 0.753116 14.2613 0.691406 14.4166 0.691406C14.5719 0.691406 14.7209 0.753116 14.8308 0.86296C14.9406 0.972803 15.0023 1.12178 15.0023 1.27713C15.0023 1.43247 14.9406 1.58145 14.8308 1.69129L10.0649 6.45712C9.79358 6.7278 9.47153 6.94234 9.1172 7.08847C8.76287 7.23461 8.38322 7.30947 7.99994 7.30879Z" fill="#13A722"/>
</svg>
