<svg width="21" height="12" viewBox="0 0 21 12" fill="none" xmlns="http://www.w3.org/2000/svg">
<path d="M19.5537 4.20594L16.3086 0.927238C16.2306 0.848643 16.1379 0.78626 16.0357 0.743689C15.9335 0.701117 15.8239 0.679199 15.7132 0.679199C15.6025 0.679199 15.4929 0.701117 15.3907 0.743689C15.2885 0.78626 15.1958 0.848643 15.1178 0.927238C14.9617 1.08435 14.874 1.29688 14.874 1.51841C14.874 1.73994 14.9617 1.95247 15.1178 2.10958L18.1031 5.11995H1.0052C0.782803 5.11995 0.569517 5.20829 0.41226 5.36555C0.255003 5.52281 0.166656 5.73609 0.166656 5.95849H0.166656C0.166656 6.18088 0.255003 6.39417 0.41226 6.55143C0.569517 6.70868 0.782803 6.79703 1.0052 6.79703H18.1534L15.1178 9.82417C15.0393 9.90212 14.9769 9.99486 14.9343 10.097C14.8917 10.1992 14.8698 10.3088 14.8698 10.4195C14.8698 10.5302 14.8917 10.6398 14.9343 10.742C14.9769 10.8442 15.0393 10.9369 15.1178 11.0149C15.1958 11.0935 15.2885 11.1559 15.3907 11.1984C15.4929 11.241 15.6025 11.2629 15.7132 11.2629C15.8239 11.2629 15.9335 11.241 16.0357 11.1984C16.1379 11.1559 16.2306 11.0935 16.3086 11.0149L19.5537 7.76135C20.0248 7.28967 20.2894 6.65029 20.2894 5.98365C20.2894 5.317 20.0248 4.67762 19.5537 4.20594Z" fill="white"/>
</svg>
