<svg width="14" height="14" viewBox="0 0 14 14" fill="none" xmlns="http://www.w3.org/2000/svg">
<g clip-path="url(#clip0_5_55)">
<path d="M1.16668 10.2083H2.625C3.26933 10.2083 3.79168 10.7306 3.79168 11.375V12.8333C3.79168 13.4777 3.26933 14 2.625 14H1.16668C0.522348 14 0 13.4777 0 12.8333V11.375C0 10.7307 0.522348 10.2083 1.16668 10.2083Z" fill="white"/>
<path d="M13.4855 10.4078C13.293 10.2774 13.0658 10.2079 12.8333 10.2083H11.375C10.7307 10.2083 10.2083 10.7306 10.2083 11.375V12.8333C10.2083 13.4777 10.7307 14 11.375 14H12.8333C13.4777 14 14 13.4777 14 12.8333V11.375C13.9999 10.9871 13.8071 10.6247 13.4855 10.4078Z" fill="white"/>
<path d="M1.16668 5.10419H2.625C3.26933 5.10419 3.79168 5.62653 3.79168 6.27086V7.72919C3.79168 8.37351 3.26933 8.89586 2.625 8.89586H1.16668C0.522348 8.89584 0 8.37351 0 7.72919V6.27086C0 5.62651 0.522348 5.10419 1.16668 5.10419Z" fill="white"/>
<path d="M13.4855 5.30369C13.293 5.17331 13.0658 5.10381 12.8333 5.10419H11.375C10.7307 5.10419 10.2083 5.62654 10.2083 6.27086V7.72919C10.2083 8.37352 10.7307 8.89586 11.375 8.89586H12.8333C13.4776 8.89586 14 8.37352 14 7.72919V6.27086C13.9999 5.88297 13.8071 5.5205 13.4855 5.30369Z" fill="white"/>
<path d="M1.16668 0H2.625C3.26933 0 3.79168 0.522348 3.79168 1.16668V2.625C3.79168 3.26933 3.26933 3.79168 2.625 3.79168H1.16668C0.522348 3.79168 0 3.26933 0 2.625V1.16668C0 0.522348 0.522348 0 1.16668 0Z" fill="white"/>
<path d="M8.38133 10.4078C8.18886 10.2774 7.96163 10.2079 7.72916 10.2083H6.27083C5.6265 10.2083 5.10416 10.7306 5.10416 11.375V12.8333C5.10416 13.4776 5.6265 14 6.27083 14H7.72916C8.37348 14 8.89583 13.4777 8.89583 12.8333V11.375C8.89578 10.9871 8.70295 10.6247 8.38133 10.4078Z" fill="white"/>
<path d="M8.38133 5.30369C8.18886 5.17331 7.96163 5.10381 7.72916 5.10419H6.27083C5.6265 5.10419 5.10416 5.62654 5.10416 6.27086V7.72919C5.10416 8.37352 5.6265 8.89586 6.27083 8.89586H7.72916C8.37348 8.89586 8.89583 8.37352 8.89583 7.72919V6.27086C8.89578 5.88297 8.70295 5.5205 8.38133 5.30369Z" fill="white"/>
<path d="M8.38133 0.199502C8.18886 0.0691266 7.96163 -0.00038124 7.72916 1.57277e-06H6.27083C5.6265 1.57277e-06 5.10416 0.522349 5.10416 1.16668V2.625C5.10416 3.26933 5.6265 3.79168 6.27083 3.79168H7.72916C8.37348 3.79168 8.89583 3.26933 8.89583 2.625V1.16668C8.89578 0.778806 8.70295 0.41631 8.38133 0.199502Z" fill="white"/>
<path d="M13.8005 0.5145C13.5837 0.192883 13.2212 5.46875e-05 12.8333 0H11.375C10.7307 0 10.2083 0.522348 10.2083 1.16668V2.625C10.2083 3.26933 10.7307 3.79168 11.375 3.79168H12.8333C13.4777 3.79168 14 3.26933 14 2.625V1.16668C14.0004 0.934199 13.9309 0.706973 13.8005 0.5145Z" fill="white"/>
</g>
<defs>
<clipPath id="clip0_5_55">
<rect width="14" height="14" fill="white"/>
</clipPath>
</defs>
</svg>
