<svg width="24" height="24" viewBox="0 0 24 24" fill="none" xmlns="http://www.w3.org/2000/svg">
<g clip-path="url(#clip0_39_1162)">
<path d="M23.955 21.319C23.916 21.1936 23.8527 21.0771 23.7687 20.9761C23.6847 20.8752 23.5816 20.7918 23.4653 20.7307C23.3491 20.6696 23.2219 20.632 23.0911 20.62C22.9603 20.6081 22.8284 20.622 22.703 20.661L21.403 21.061L20.472 18.324C21.4499 17.7753 22.2127 16.911 22.6355 15.8725C23.0584 14.834 23.1164 13.6827 22.8 12.607L20.957 7.132C20.7251 6.38455 20.2123 5.75619 19.5265 5.37909C18.8408 5.00198 18.0355 4.90552 17.28 5.11L13.428 6.184C12.8756 6.3377 12.3796 6.64823 12 7.078C11.6205 6.64823 11.1244 6.3377 10.572 6.184L6.71904 5.11C5.9691 4.90314 5.16819 4.99486 4.48445 5.36592C3.80071 5.73697 3.28731 6.35849 3.05204 7.1L1.18504 12.657C0.881054 13.7319 0.949137 14.878 1.37824 15.9094C1.80734 16.9408 2.5723 17.7969 3.54904 18.339L2.60504 21.067L1.30004 20.661C1.17462 20.6216 1.04268 20.6073 0.911737 20.6189C0.780794 20.6305 0.653418 20.6678 0.536881 20.7286C0.420343 20.7894 0.316926 20.8726 0.232536 20.9734C0.148145 21.0742 0.0844321 21.1906 0.0450355 21.316C0.00563893 21.4414 -0.00867006 21.5734 0.00292551 21.7043C0.0145211 21.8352 0.0517941 21.9626 0.112616 22.0792C0.173439 22.1957 0.256619 22.2991 0.357409 22.3835C0.458198 22.4679 0.574623 22.5316 0.700036 22.571L2.86004 23.242C2.87504 23.242 2.88404 23.259 2.89904 23.265C2.91404 23.271 2.95104 23.271 2.97704 23.278L5.15804 23.955C5.41132 24.0338 5.68552 24.0087 5.92031 23.8853C6.15511 23.7619 6.33127 23.5503 6.41004 23.297C6.4888 23.0437 6.46373 22.7695 6.34033 22.5347C6.21693 22.2999 6.00532 22.1238 5.75204 22.045L4.51604 21.66L5.45104 18.96C5.63647 18.9838 5.8231 18.9972 6.01004 19C7.0912 18.9973 8.14238 18.6443 9.00597 17.9938C9.86956 17.3433 10.499 16.4304 10.8 15.392L12 11.836L13.183 15.336C13.4746 16.3876 14.1023 17.315 14.9702 17.9766C15.8382 18.6381 16.8987 18.9976 17.99 19C18.1843 18.9982 18.3783 18.9848 18.571 18.96L19.489 21.66L18.245 22.046C17.9918 22.1248 17.7801 22.3009 17.6567 22.5357C17.5333 22.7705 17.5083 23.0447 17.587 23.298C17.6658 23.5513 17.842 23.7629 18.0768 23.8863C18.3116 24.0097 18.5858 24.0348 18.839 23.956L21.014 23.281C21.04 23.274 21.067 23.281 21.093 23.268C21.119 23.255 21.119 23.249 21.135 23.243L23.297 22.572C23.4226 22.533 23.5392 22.4697 23.6402 22.3856C23.7412 22.3015 23.8247 22.1983 23.8858 22.0819C23.9469 21.9655 23.9845 21.8383 23.9964 21.7074C24.0083 21.5764 23.9942 21.4445 23.955 21.319ZM13.357 8.592C13.4207 8.47482 13.5073 8.37172 13.6118 8.28889C13.7163 8.20606 13.8364 8.14521 13.965 8.11L17.816 7.037C17.902 7.01294 17.9908 7.0005 18.08 7C18.3 7.00232 18.5133 7.07547 18.6884 7.20858C18.8635 7.3417 18.991 7.5277 19.052 7.739L19.813 10H13.49L13.275 9.363C13.2367 9.2355 13.2242 9.10163 13.2383 8.96923C13.2524 8.83684 13.2927 8.70858 13.357 8.592ZM5.91804 7C6.00758 7.00017 6.0967 7.01227 6.18304 7.036L10.035 8.11C10.2895 8.18019 10.5059 8.34815 10.637 8.57726C10.7682 8.80636 10.8034 9.07803 10.735 9.333L10.51 10H4.18704L4.95704 7.71C5.02058 7.50465 5.14811 7.325 5.321 7.19727C5.49389 7.06953 5.70308 7.00041 5.91804 7ZM8.89204 14.8C8.73231 15.3708 8.40707 15.8815 7.95737 16.2677C7.50766 16.6538 6.95365 16.8981 6.36525 16.9696C5.77685 17.0412 5.18044 16.9369 4.65128 16.6698C4.12213 16.4027 3.68394 15.9849 3.39204 15.469C3.00556 14.7951 2.90062 13.9959 3.10004 13.245L3.51404 12H9.83604L8.89204 14.8ZM16.524 16.608C16.1736 16.4092 15.8665 16.1423 15.6208 15.823C15.375 15.5038 15.1956 15.1386 15.093 14.749L14.164 12H20.487L20.887 13.194C21.0466 13.7658 21.033 14.3722 20.8478 14.9362C20.6626 15.5003 20.3142 15.9967 19.8468 16.3627C19.3793 16.7286 18.8138 16.9477 18.2217 16.9921C17.6297 17.0364 17.0378 16.9042 16.521 16.612L16.524 16.608Z" fill="#9B9B9B"/>
<path d="M15.553 3.9C15.6711 3.95936 15.7998 3.99474 15.9316 4.00407C16.0634 4.01341 16.1958 3.99653 16.321 3.95441C16.4463 3.91229 16.5619 3.84576 16.6613 3.75866C16.7607 3.67157 16.8418 3.56564 16.9 3.447L17.9 1.447C18.0186 1.20963 18.038 0.93489 17.954 0.683216C17.87 0.431542 17.6894 0.223552 17.452 0.105C17.2147 -0.0135517 16.9399 -0.0329535 16.6883 0.0510628C16.4366 0.135079 16.2286 0.315631 16.11 0.553L15.11 2.553C15.0503 2.67046 15.0144 2.79857 15.0044 2.92996C14.9943 3.06134 15.0104 3.19342 15.0515 3.31859C15.0927 3.44377 15.1582 3.55957 15.2443 3.65935C15.3303 3.75913 15.4353 3.84091 15.553 3.9Z" fill="#9B9B9B"/>
<path d="M7.10506 3.447C7.22361 3.68503 7.43186 3.86622 7.684 3.95071C7.80885 3.99254 7.94072 4.00937 8.07207 4.00024C8.20343 3.99111 8.33169 3.9562 8.44956 3.8975C8.56742 3.8388 8.67256 3.75746 8.75899 3.65812C8.84541 3.55879 8.91143 3.4434 8.95326 3.31855C8.99509 3.1937 9.01193 3.06184 9.0028 2.93049C8.99367 2.79913 8.95876 2.67086 8.90006 2.553L7.90006 0.553C7.84136 0.435467 7.76008 0.330647 7.66087 0.244524C7.56166 0.158402 7.44646 0.0926635 7.32184 0.0510628C7.07017 -0.0329535 6.79543 -0.0135517 6.55806 0.105C6.32069 0.223552 6.14014 0.431543 6.05612 0.683216C5.9721 0.93489 5.9915 1.20963 6.11006 1.447L7.10506 3.447Z" fill="#9B9B9B"/>
<path d="M12 4C12.2652 4 12.5196 3.89464 12.7071 3.70711C12.8946 3.51957 13 3.26522 13 3V1C13 0.734784 12.8946 0.48043 12.7071 0.292893C12.5196 0.105357 12.2652 0 12 0C11.7348 0 11.4804 0.105357 11.2929 0.292893C11.1054 0.48043 11 0.734784 11 1V3C11 3.26522 11.1054 3.51957 11.2929 3.70711C11.4804 3.89464 11.7348 4 12 4Z" fill="#9B9B9B"/>
</g>
<defs>
<clipPath id="clip0_39_1162">
<rect width="24" height="24" fill="white"/>
</clipPath>
</defs>
</svg>
