<svg width="12" height="12" viewBox="0 0 12 12" fill="none" xmlns="http://www.w3.org/2000/svg">
<path d="M6 12C2.6915 12 0 9.3085 0 6C0 2.6915 2.6915 0 6 0C9.3085 0 12 2.6915 12 6C12 9.3085 9.3085 12 6 12ZM6 0.5C2.9675 0.5 0.5 2.9675 0.5 6C0.5 9.0325 2.9675 11.5 6 11.5C9.0325 11.5 11.5 9.0325 11.5 6C11.5 2.9675 9.0325 0.5 6 0.5Z" fill="#929292"/>
<path d="M8.75 9C8.686 9 8.622 8.9755 8.573 8.927L5.823 6.177C5.7765 6.13 5.75 6.0665 5.75 6V2.25C5.75 2.112 5.862 2 6 2C6.138 2 6.25 2.112 6.25 2.25V5.8965L8.927 8.5735C9.0245 8.671 9.0245 8.8295 8.927 8.927C8.878 8.9755 8.814 9 8.75 9Z" fill="#929292"/>
</svg>
