<svg width="14" height="14" viewBox="0 0 14 14" fill="none" xmlns="http://www.w3.org/2000/svg">
<path d="M8.23718 7.00004L13.7436 1.49419C14.0854 1.15238 14.0854 0.598201 13.7436 0.256419C13.4018 -0.0853915 12.8476 -0.0853915 12.5059 0.256419L6.99998 5.76284L1.49413 0.256419C1.15232 -0.0853915 0.59814 -0.0853915 0.256358 0.256419C-0.0854252 0.598229 -0.0854525 1.15241 0.256358 1.49419L5.76278 7.00004L0.256358 12.5059C-0.0854525 12.8477 -0.0854525 13.4019 0.256358 13.7437C0.598168 14.0855 1.15235 14.0855 1.49413 13.7437L6.99998 8.23724L12.5058 13.7437C12.8476 14.0855 13.4018 14.0855 13.7436 13.7437C14.0854 13.4019 14.0854 12.8477 13.7436 12.5059L8.23718 7.00004Z" fill="white"/>
</svg>
