<svg width="15" height="9" viewBox="0 0 15 9" fill="none" xmlns="http://www.w3.org/2000/svg">
<path d="M1.2111 0.125H13.7886C14.0111 0.125933 14.2283 0.19282 14.4128 0.317203C14.5973 0.441586 14.7407 0.61788 14.825 0.823792C14.9093 1.0297 14.9307 1.25598 14.8864 1.47402C14.842 1.69206 14.7341 1.89207 14.5761 2.04875L8.2986 8.32625C8.19402 8.4317 8.06959 8.51539 7.9325 8.5725C7.79541 8.62962 7.64837 8.65902 7.49985 8.65902C7.35134 8.65902 7.2043 8.62962 7.0672 8.5725C6.93011 8.51539 6.80569 8.4317 6.7011 8.32625L0.423604 2.04875C0.26563 1.89207 0.157662 1.69206 0.113354 1.47402C0.0690456 1.25598 0.0903859 1.0297 0.174677 0.823792C0.258968 0.61788 0.402425 0.441586 0.586906 0.317203C0.771388 0.19282 0.988609 0.125933 1.2111 0.125Z" fill="#13A722"/>
</svg>
