<svg width="16" height="16" viewBox="0 0 16 16" fill="none" xmlns="http://www.w3.org/2000/svg">
<g clip-path="url(#clip0_27_532)">
<path d="M15.9693 3.69467L10.3573 9.30667C9.73158 9.93084 8.88383 10.2814 8 10.2814C7.11617 10.2814 6.26842 9.93084 5.64267 9.30667L0.0306667 3.69467C0.0213333 3.8 0 3.89534 0 4.00001V12C0.00105857 12.8837 0.352588 13.731 0.97748 14.3559C1.60237 14.9808 2.4496 15.3323 3.33333 15.3333H12.6667C13.5504 15.3323 14.3976 14.9808 15.0225 14.3559C15.6474 13.731 15.9989 12.8837 16 12V4.00001C16 3.89534 15.9787 3.8 15.9693 3.69467Z" fill="white"/>
<path d="M9.41467 8.364L15.504 2.274C15.209 1.78488 14.793 1.38003 14.296 1.09849C13.799 0.816954 13.2379 0.668232 12.6667 0.666672H3.33334C2.76215 0.668232 2.201 0.816954 1.70402 1.09849C1.20704 1.38003 0.790988 1.78488 0.496002 2.274L6.58534 8.364C6.96105 8.73821 7.46973 8.94831 8 8.94831C8.53028 8.94831 9.03896 8.73821 9.41467 8.364Z" fill="white"/>
</g>
<defs>
<clipPath id="clip0_27_532">
<rect width="16" height="16" fill="white"/>
</clipPath>
</defs>
</svg>
