<svg width="31" height="31" viewBox="0 0 31 31" fill="none" xmlns="http://www.w3.org/2000/svg">
<path d="M28.2754 7.26562H24.5795C25.151 6.50612 25.4902 5.5625 25.4902 4.54102C25.4902 2.0371 23.4531 0 20.9492 0C19.4409 0 18.3288 0.540381 17.4491 1.70058C16.7131 2.67127 16.175 4.02655 15.5 5.73894C14.825 4.02649 14.2869 2.67127 13.5509 1.70058C12.6713 0.540381 11.5591 0 10.0508 0C7.54687 0 5.50977 2.0371 5.50977 4.54102C5.50977 5.5625 5.84901 6.50612 6.42045 7.26562H2.72461C1.22226 7.26562 0 8.48788 0 9.99023V11.8066C0 12.9906 0.759318 14.0001 1.81641 14.375V28.2754C1.81641 29.7777 3.03867 31 4.54102 31H26.459C27.9613 31 29.1836 29.7777 29.1836 28.2754V14.375C30.2407 14.0001 31 12.9906 31 11.8066V9.99023C31 8.48788 29.7777 7.26562 28.2754 7.26562ZM17.1671 6.46277C18.5584 2.93301 19.0873 1.81641 20.9492 1.81641C22.4516 1.81641 23.6738 3.03867 23.6738 4.54102C23.6738 6.04337 22.4516 7.26562 20.9492 7.26562H16.8494C16.9607 6.9862 17.0668 6.71719 17.1671 6.46277ZM10.0508 1.81641C11.9127 1.81641 12.4416 2.93301 13.8329 6.46277C13.9332 6.71719 14.0393 6.9862 14.1506 7.26562H10.0508C8.54843 7.26562 7.32617 6.04337 7.32617 4.54102C7.32617 3.03867 8.54843 1.81641 10.0508 1.81641ZM11.8672 29.1836H4.54102C4.04023 29.1836 3.63281 28.7762 3.63281 28.2754V14.5312H11.8672V29.1836ZM11.8672 12.7148H2.72461C2.22383 12.7148 1.81641 12.3074 1.81641 11.8066V9.99023C1.81641 9.48945 2.22383 9.08203 2.72461 9.08203H11.8672V12.7148ZM17.3164 29.1836H13.6836V9.08203C13.8739 9.08203 16.2726 9.08203 17.3164 9.08203V29.1836ZM27.3672 28.2754C27.3672 28.7762 26.9598 29.1836 26.459 29.1836H19.1328V14.5312H27.3672V28.2754ZM29.1836 11.8066C29.1836 12.3074 28.7762 12.7148 28.2754 12.7148H19.1328V9.08203H28.2754C28.7762 9.08203 29.1836 9.48945 29.1836 9.99023V11.8066Z" fill="white"/>
</svg>
