<svg width="24" height="24" viewBox="0 0 24 24" fill="none" xmlns="http://www.w3.org/2000/svg">
<g clip-path="url(#clip0_39_1169)">
<path d="M21.469 1.027C21.1874 0.704451 20.84 0.445918 20.4502 0.268776C20.0604 0.0916349 19.6371 -1.03878e-05 19.209 8.83129e-10L4.79097 8.83128e-10C4.36283 7.66063e-05 3.93968 0.0917888 3.54993 0.268974C3.16019 0.446159 2.81288 0.704712 2.53135 1.02726C2.24982 1.34981 2.04059 1.72888 1.91771 2.139C1.79484 2.54912 1.76117 2.98079 1.81897 3.405L4.03797 19.675C4.2046 20.8716 4.79742 21.9678 5.70751 22.7624C6.61761 23.5569 7.78384 23.9964 8.99196 24H15.008C16.2159 23.9964 17.382 23.5571 18.2921 22.7628C19.2022 21.9684 19.7951 20.8724 19.962 19.676L22.181 3.405C22.2388 2.98077 22.2053 2.54907 22.0824 2.1389C21.9596 1.72874 21.7505 1.34961 21.469 1.027ZM17.981 19.406C17.8806 20.1238 17.5247 20.7813 16.9785 21.2578C16.4324 21.7343 15.7327 21.9978 15.008 22H8.99196C8.26704 21.9978 7.56724 21.7341 7.02109 21.2574C6.47494 20.7807 6.11912 20.123 6.01896 19.405L4.59997 9H16C16.2652 9 16.5195 8.89464 16.7071 8.7071C16.8946 8.51957 17 8.26521 17 8C17 7.73478 16.8946 7.48043 16.7071 7.29289C16.5195 7.10535 16.2652 7 16 7H4.32697L3.79997 3.135C3.7807 2.99357 3.79193 2.84965 3.83291 2.71292C3.87388 2.57619 3.94366 2.44982 4.03754 2.34229C4.13142 2.23477 4.24723 2.14859 4.37718 2.08955C4.50714 2.03051 4.64823 1.99998 4.79097 2H19.209C19.3517 1.99998 19.4928 2.03051 19.6227 2.08955C19.7527 2.14859 19.8685 2.23477 19.9624 2.34229C20.0563 2.44982 20.126 2.57619 20.167 2.71292C20.208 2.84965 20.2192 2.99357 20.2 3.135L17.981 19.406Z" fill="#9B9B9B"/>
</g>
<defs>
<clipPath id="clip0_39_1169">
<rect width="24" height="24" fill="white"/>
</clipPath>
</defs>
</svg>
