<svg width="26" height="26" viewBox="0 0 26 26" fill="none" xmlns="http://www.w3.org/2000/svg">
<g clip-path="url(#clip0_57_3759)">
<path d="M4.875 18.9585H2.16667C1.59203 18.9585 1.04093 19.1868 0.634602 19.5931C0.228273 19.9994 0 20.5505 0 21.1252L0 23.8335C0 24.4081 0.228273 24.9592 0.634602 25.3655C1.04093 25.7719 1.59203 26.0001 2.16667 26.0001H4.875C5.44963 26.0001 6.00073 25.7719 6.40706 25.3655C6.81339 24.9592 7.04166 24.4081 7.04166 23.8335V21.1252C7.04166 20.5505 6.81339 19.9994 6.40706 19.5931C6.00073 19.1868 5.44963 18.9585 4.875 18.9585ZM4.875 23.8335H2.16667V21.1252H4.875V23.8335Z" fill="#676767"/>
<path d="M23.8334 18.9585H21.125C20.5504 18.9585 19.9993 19.1868 19.593 19.5931C19.1866 19.9994 18.9584 20.5505 18.9584 21.1252V23.8335C18.9584 24.4081 19.1866 24.9592 19.593 25.3655C19.9993 25.7719 20.5504 26.0001 21.125 26.0001H23.8334C24.408 26.0001 24.9591 25.7719 25.3654 25.3655C25.7717 24.9592 26 24.4081 26 23.8335V21.1252C26 20.5505 25.7717 19.9994 25.3654 19.5931C24.9591 19.1868 24.408 18.9585 23.8334 18.9585ZM23.8334 23.8335H21.125V21.1252H23.8334V23.8335Z" fill="#676767"/>
<path d="M4.875 9.479H2.16667C1.59203 9.479 1.04093 9.70728 0.634602 10.1136C0.228273 10.5199 0 11.071 0 11.6457L0 14.354C0 14.9286 0.228273 15.4797 0.634602 15.8861C1.04093 16.2924 1.59203 16.5207 2.16667 16.5207H4.875C5.44963 16.5207 6.00073 16.2924 6.40706 15.8861C6.81339 15.4797 7.04166 14.9286 7.04166 14.354V11.6457C7.04166 11.071 6.81339 10.5199 6.40706 10.1136C6.00073 9.70728 5.44963 9.479 4.875 9.479ZM4.875 14.354H2.16667V11.6457H4.875V14.354Z" fill="#676767"/>
<path d="M23.8334 9.479H21.125C20.5504 9.479 19.9993 9.70728 19.593 10.1136C19.1866 10.5199 18.9584 11.071 18.9584 11.6457V14.354C18.9584 14.9286 19.1866 15.4797 19.593 15.8861C19.9993 16.2924 20.5504 16.5207 21.125 16.5207H23.8334C24.408 16.5207 24.9591 16.2924 25.3654 15.8861C25.7717 15.4797 26 14.9286 26 14.354V11.6457C26 11.071 25.7717 10.5199 25.3654 10.1136C24.9591 9.70728 24.408 9.479 23.8334 9.479ZM23.8334 14.354H21.125V11.6457H23.8334V14.354Z" fill="#676767"/>
<path d="M4.875 0H2.16667C1.59203 0 1.04093 0.228273 0.634602 0.634602C0.228273 1.04093 0 1.59203 0 2.16667L0 4.875C0 5.44964 0.228273 6.00074 0.634602 6.40707C1.04093 6.81339 1.59203 7.04167 2.16667 7.04167H4.875C5.44964 7.04167 6.00074 6.81339 6.40707 6.40707C6.81339 6.00074 7.04167 5.44964 7.04167 4.875V2.16667C7.04167 1.59203 6.81339 1.04093 6.40707 0.634602C6.00074 0.228273 5.44964 0 4.875 0V0ZM4.875 4.875H2.16667V2.16667H4.875V4.875Z" fill="#676767"/>
<path d="M14.3541 18.9585H11.6458C11.0712 18.9585 10.5201 19.1868 10.1137 19.5931C9.7074 19.9994 9.47913 20.5505 9.47913 21.1252V23.8335C9.47913 24.4081 9.7074 24.9592 10.1137 25.3655C10.5201 25.7719 11.0712 26.0001 11.6458 26.0001H14.3541C14.9288 26.0001 15.4799 25.7719 15.8862 25.3655C16.2925 24.9592 16.5208 24.4081 16.5208 23.8335V21.1252C16.5208 20.5505 16.2925 19.9994 15.8862 19.5931C15.4799 19.1868 14.9288 18.9585 14.3541 18.9585ZM14.3541 23.8335H11.6458V21.1252H14.3541V23.8335Z" fill="#676767"/>
<path d="M14.3541 9.479H11.6458C11.0712 9.479 10.5201 9.70728 10.1137 10.1136C9.7074 10.5199 9.47913 11.071 9.47913 11.6457V14.354C9.47913 14.9286 9.7074 15.4797 10.1137 15.8861C10.5201 16.2924 11.0712 16.5207 11.6458 16.5207H14.3541C14.9288 16.5207 15.4799 16.2924 15.8862 15.8861C16.2925 15.4797 16.5208 14.9286 16.5208 14.354V11.6457C16.5208 11.071 16.2925 10.5199 15.8862 10.1136C15.4799 9.70728 14.9288 9.479 14.3541 9.479ZM14.3541 14.354H11.6458V11.6457H14.3541V14.354Z" fill="#676767"/>
<path d="M14.3541 0H11.6458C11.0712 0 10.5201 0.228273 10.1137 0.634602C9.7074 1.04093 9.47913 1.59203 9.47913 2.16667V4.875C9.47913 5.44963 9.7074 6.00073 10.1137 6.40706C10.5201 6.81339 11.0712 7.04166 11.6458 7.04166H14.3541C14.9288 7.04166 15.4799 6.81339 15.8862 6.40706C16.2925 6.00073 16.5208 5.44963 16.5208 4.875V2.16667C16.5208 1.59203 16.2925 1.04093 15.8862 0.634602C15.4799 0.228273 14.9288 0 14.3541 0V0ZM14.3541 4.875H11.6458V2.16667H14.3541V4.875Z" fill="#676767"/>
<path d="M23.8334 0H21.125C20.5504 0 19.9993 0.228273 19.593 0.634602C19.1866 1.04093 18.9584 1.59203 18.9584 2.16667V4.875C18.9584 5.44963 19.1866 6.00073 19.593 6.40706C19.9993 6.81339 20.5504 7.04166 21.125 7.04166H23.8334C24.408 7.04166 24.9591 6.81339 25.3654 6.40706C25.7717 6.00073 26 5.44963 26 4.875V2.16667C26 1.59203 25.7717 1.04093 25.3654 0.634602C24.9591 0.228273 24.408 0 23.8334 0V0ZM23.8334 4.875H21.125V2.16667H23.8334V4.875Z" fill="#676767"/>
</g>
<defs>
<clipPath id="clip0_57_3759">
<rect width="26" height="26" fill="white"/>
</clipPath>
</defs>
</svg>
