<svg width="11" height="11" viewBox="0 0 11 11" fill="none" xmlns="http://www.w3.org/2000/svg">
<path d="M10.5971 4.15662L7.12067 0.679708C6.69041 0.250703 6.1076 0.00979614 5.50001 0.00979614C4.89241 0.00979614 4.3096 0.250703 3.87934 0.679708L0.402881 4.15662C0.274742 4.28394 0.17315 4.43543 0.103993 4.6023C0.0348366 4.76917 -0.000508934 4.94811 5.53643e-06 5.12875V9.6282C5.53643e-06 9.99288 0.144871 10.3426 0.402734 10.6005C0.660596 10.8583 1.01033 11.0032 1.37501 11.0032H9.62501C9.98968 11.0032 10.3394 10.8583 10.5973 10.6005C10.8551 10.3426 11 9.99288 11 9.6282V5.12875C11.0005 4.94811 10.9652 4.76917 10.896 4.6023C10.8269 4.43543 10.7253 4.28394 10.5971 4.15662ZM6.87501 10.0865H4.12501V8.28345C4.12501 7.91878 4.26987 7.56905 4.52773 7.31118C4.7856 7.05332 5.13533 6.90846 5.50001 6.90846C5.86468 6.90846 6.21442 7.05332 6.47228 7.31118C6.73014 7.56905 6.87501 7.91878 6.87501 8.28345V10.0865ZM10.0833 9.6282C10.0833 9.74976 10.0351 9.86634 9.9491 9.95229C9.86314 10.0382 9.74656 10.0865 9.62501 10.0865H7.79167V8.28345C7.79167 7.67567 7.55023 7.09277 7.12046 6.663C6.69069 6.23323 6.10779 5.99179 5.50001 5.99179C4.89222 5.99179 4.30932 6.23323 3.87955 6.663C3.44978 7.09277 3.20834 7.67567 3.20834 8.28345V10.0865H1.37501C1.25345 10.0865 1.13687 10.0382 1.05092 9.95229C0.964961 9.86634 0.916672 9.74976 0.916672 9.6282V5.12875C0.917097 5.00728 0.965342 4.89087 1.05096 4.80471L4.52742 1.32917C4.78579 1.07201 5.13548 0.92764 5.50001 0.92764C5.86453 0.92764 6.21423 1.07201 6.47259 1.32917L9.94905 4.80608C10.0343 4.8919 10.0826 5.00776 10.0833 5.12875V9.6282Z" fill="#999999"/>
</svg>
