<svg width="296" height="10" viewBox="0 0 296 10" fill="none" xmlns="http://www.w3.org/2000/svg">
<path d="M1 9L15.1313 2.02361C16.4467 1.37424 17.9808 1.33525 19.3275 1.91697L33.7416 8.14349C35.007 8.69009 36.4418 8.69009 37.7072 8.14349L52.2613 1.85651C53.5267 1.30991 54.9615 1.30991 56.2269 1.85651L70.781 8.14349C72.0464 8.69009 73.4812 8.69009 74.7466 8.14349L89.3007 1.85651C90.566 1.30991 92.0009 1.30991 93.2663 1.85651L107.82 8.14349C109.086 8.69009 110.521 8.69009 111.786 8.14349L126.34 1.85651C127.605 1.30991 129.04 1.30991 130.306 1.85651L144.86 8.14349C146.125 8.69009 147.56 8.69009 148.825 8.14349L163.379 1.85651C164.645 1.30991 166.08 1.30991 167.345 1.85651L181.899 8.14349C183.164 8.69009 184.599 8.69009 185.865 8.14349L200.419 1.85651C201.684 1.30991 203.119 1.30991 204.384 1.85651L218.938 8.14349C220.204 8.69009 221.639 8.69009 222.904 8.14349L237.458 1.85651C238.724 1.30991 240.158 1.30991 241.424 1.85651L255.978 8.14349C257.243 8.69009 258.678 8.69009 259.943 8.14349L274.498 1.85651C275.763 1.30991 277.198 1.30991 278.463 1.85651L295 9" stroke="#9F9F9F" stroke-opacity="0.4"/>
</svg>
