<svg width="19" height="17" viewBox="0 0 19 17" fill="none" xmlns="http://www.w3.org/2000/svg">
<path d="M14.6649 0.333252H4.0434C3.0377 0.334428 2.07353 0.724905 1.36239 1.41903C0.651252 2.11316 0.251205 3.05426 0.25 4.0359L0.25 12.9223C0.251205 13.9039 0.651252 14.845 1.36239 15.5391C2.07353 16.2333 3.0377 16.6237 4.0434 16.6249H14.6649C15.6706 16.6237 16.6348 16.2333 17.3459 15.5391C18.0571 14.845 18.4571 13.9039 18.4583 12.9223V4.0359C18.4571 3.05426 18.0571 2.11316 17.3459 1.41903C16.6348 0.724905 15.6706 0.334428 14.6649 0.333252ZM4.0434 1.81431H14.6649C15.1192 1.81518 15.5628 1.94873 15.9387 2.19776C16.3146 2.44679 16.6055 2.79992 16.7741 3.21169L10.9641 8.88341C10.5365 9.29908 9.95763 9.53246 9.35417 9.53246C8.7507 9.53246 8.17182 9.29908 7.74425 8.88341L1.93427 3.21169C2.10281 2.79992 2.39374 2.44679 2.76961 2.19776C3.14549 1.94873 3.58912 1.81518 4.0434 1.81431ZM14.6649 15.1439H4.0434C3.43976 15.1439 2.86084 14.9098 2.434 14.4932C2.00716 14.0765 1.76736 13.5115 1.76736 12.9223V5.1467L6.67147 9.93052C7.38359 10.6238 8.34835 11.0132 9.35417 11.0132C10.36 11.0132 11.3247 10.6238 12.0369 9.93052L16.941 5.1467V12.9223C16.941 13.5115 16.7012 14.0765 16.2743 14.4932C15.8475 14.9098 15.2686 15.1439 14.6649 15.1439Z" fill="#D2D2D2"/>
</svg>
