<svg width="17" height="16" viewBox="0 0 17 16" fill="none" xmlns="http://www.w3.org/2000/svg">
<g clip-path="url(#clip0_17_1078)">
<path d="M16.5 6.66648C16.5 6.61781 16.4947 6.56929 16.484 6.52181L15.6173 2.60981C15.4563 1.8673 15.0449 1.20273 14.4521 0.727533C13.8593 0.252333 13.1211 -0.00460173 12.3613 -0.000188215H4.63867C3.87937 -0.00398842 3.14182 0.253226 2.54955 0.728376C1.95729 1.20353 1.54627 1.86775 1.38533 2.60981L0.516001 6.52181C0.50534 6.56929 0.499974 6.61781 0.500001 6.66648V7.33314C0.499463 7.98221 0.736615 8.609 1.16667 9.09514V12.6665C1.16773 13.5502 1.51926 14.3974 2.14415 15.0223C2.76904 15.6472 3.61627 15.9987 4.5 15.9998H12.5C13.3837 15.9987 14.231 15.6472 14.8559 15.0223C15.4808 14.3974 15.8323 13.5502 15.8333 12.6665V9.09514C16.2634 8.609 16.5006 7.98221 16.5 7.33314V6.66648ZM1.83334 6.73914L2.68667 2.89914C2.78336 2.45398 3.03001 2.05553 3.38534 1.77046C3.74068 1.4854 4.18313 1.33101 4.63867 1.33314H5.16667V3.33314C5.16667 3.50996 5.23691 3.67952 5.36193 3.80455C5.48696 3.92957 5.65653 3.99981 5.83334 3.99981C6.01015 3.99981 6.17972 3.92957 6.30474 3.80455C6.42977 3.67952 6.50001 3.50996 6.50001 3.33314V1.33314H10.5V3.33314C10.5 3.50996 10.5702 3.67952 10.6953 3.80455C10.8203 3.92957 10.9899 3.99981 11.1667 3.99981C11.3435 3.99981 11.5131 3.92957 11.6381 3.80455C11.7631 3.67952 11.8333 3.50996 11.8333 3.33314V1.33314H12.3613C12.8169 1.33101 13.2593 1.4854 13.6147 1.77046C13.97 2.05553 14.2166 2.45398 14.3133 2.89914L15.1667 6.73914V7.33314C15.1667 7.68677 15.0262 8.0259 14.7762 8.27595C14.5261 8.526 14.187 8.66648 13.8333 8.66648H13.1667C12.8131 8.66648 12.4739 8.526 12.2239 8.27595C11.9738 8.0259 11.8333 7.68677 11.8333 7.33314C11.8333 7.15633 11.7631 6.98676 11.6381 6.86174C11.5131 6.73671 11.3435 6.66648 11.1667 6.66648C10.9899 6.66648 10.8203 6.73671 10.6953 6.86174C10.5702 6.98676 10.5 7.15633 10.5 7.33314C10.5 7.68677 10.3595 8.0259 10.1095 8.27595C9.85943 8.526 9.5203 8.66648 9.16667 8.66648H7.83334C7.47972 8.66648 7.14058 8.526 6.89053 8.27595C6.64048 8.0259 6.50001 7.68677 6.50001 7.33314C6.50001 7.15633 6.42977 6.98676 6.30474 6.86174C6.17972 6.73671 6.01015 6.66648 5.83334 6.66648C5.65653 6.66648 5.48696 6.73671 5.36193 6.86174C5.23691 6.98676 5.16667 7.15633 5.16667 7.33314C5.16667 7.68677 5.0262 8.0259 4.77615 8.27595C4.5261 8.526 4.18696 8.66648 3.83334 8.66648H3.16667C2.81305 8.66648 2.47391 8.526 2.22386 8.27595C1.97381 8.0259 1.83334 7.68677 1.83334 7.33314V6.73914ZM12.5 14.6665H4.5C3.96957 14.6665 3.46086 14.4558 3.08579 14.0807C2.71072 13.7056 2.5 13.1969 2.5 12.6665V9.91514C2.71774 9.97152 2.94176 9.99997 3.16667 9.99981H3.83334C4.21188 10 4.58611 9.91941 4.93101 9.7634C5.27591 9.60739 5.58354 9.37956 5.83334 9.09514C6.08314 9.37956 6.39077 9.60739 6.73567 9.7634C7.08057 9.91941 7.4548 10 7.83334 9.99981H9.16667C9.54522 10 9.91944 9.91941 10.2643 9.7634C10.6092 9.60739 10.9169 9.37956 11.1667 9.09514C11.4165 9.37956 11.7241 9.60739 12.069 9.7634C12.4139 9.91941 12.7881 10 13.1667 9.99981H13.8333C14.0583 9.99997 14.2823 9.97152 14.5 9.91514V12.6665C14.5 13.1969 14.2893 13.7056 13.9142 14.0807C13.5392 14.4558 13.0304 14.6665 12.5 14.6665Z" fill="white"/>
</g>
<defs>
<clipPath id="clip0_17_1078">
<rect width="16" height="16" fill="white" transform="translate(0.5)"/>
</clipPath>
</defs>
</svg>
