<svg width="12" height="15" viewBox="0 0 12 15" fill="none" xmlns="http://www.w3.org/2000/svg">
<path d="M5.99999 -1.52588e-05C4.45645 0.00180417 2.97661 0.659532 1.88511 1.82888C0.793615 2.99822 0.179587 4.5837 0.177734 6.23748C0.177734 7.84373 1.33857 10.3575 3.62815 13.7087C3.90072 14.1088 4.2576 14.4343 4.66975 14.6587C5.0819 14.8831 5.53768 15 5.99999 15C6.46229 15 6.91807 14.8831 7.33022 14.6587C7.74237 14.4343 8.09925 14.1088 8.37182 13.7087C10.6614 10.3575 11.8222 7.84373 11.8222 6.23748C11.8204 4.5837 11.2064 2.99822 10.1149 1.82888C9.02336 0.659532 7.54352 0.00180417 5.99999 -1.52588e-05ZM5.99999 8.72373C5.5385 8.72373 5.08737 8.57711 4.70365 8.30241C4.31994 8.0277 4.02087 7.63726 3.84427 7.18044C3.66766 6.72363 3.62145 6.22096 3.71149 5.73601C3.80152 5.25106 4.02375 4.8056 4.35007 4.45597C4.67639 4.10634 5.09215 3.86823 5.54477 3.77177C5.9974 3.67531 6.46655 3.72482 6.89291 3.91404C7.31927 4.10326 7.68369 4.42369 7.94008 4.83481C8.19647 5.24593 8.33332 5.72928 8.33332 6.22373C8.33332 6.88678 8.08749 7.52266 7.6499 7.9915C7.21232 8.46034 6.61882 8.72373 5.99999 8.72373Z" fill="#13A722"/>
</svg>
