<svg width="34" height="44" viewBox="0 0 34 44" fill="none" xmlns="http://www.w3.org/2000/svg">
<path d="M17 0C12.4931 0.00523429 8.17226 1.89744 4.98526 5.26151C1.79827 8.62559 0.00540984 13.1868 0 17.9446C0 22.5656 3.38944 29.7973 10.0746 39.4385C10.8705 40.5895 11.9125 41.5258 13.1159 42.1713C14.3194 42.8169 15.6501 43.1533 17 43.1533C18.3499 43.1533 19.6806 42.8169 20.8841 42.1713C22.0875 41.5258 23.1295 40.5895 23.9254 39.4385C30.6106 29.7973 34 22.5656 34 17.9446C33.9946 13.1868 32.2017 8.62559 29.0147 5.26151C25.8277 1.89744 21.5069 0.00523429 17 0V0ZM17 25.0972C15.6525 25.0972 14.3353 24.6754 13.2149 23.8851C12.0945 23.0948 11.2213 21.9715 10.7057 20.6573C10.19 19.3431 10.0551 17.897 10.318 16.5019C10.5808 15.1067 11.2297 13.8252 12.1825 12.8193C13.1353 11.8135 14.3493 11.1285 15.6709 10.851C16.9924 10.5735 18.3623 10.7159 19.6072 11.2603C20.8521 11.8046 21.9161 12.7265 22.6648 13.9092C23.4134 15.092 23.8129 16.4825 23.8129 17.905C23.8129 19.8125 23.0952 21.6419 21.8175 22.9907C20.5398 24.3395 18.8069 25.0972 17 25.0972Z" fill="#13A722"/>
</svg>
