<svg width="14" height="14" viewBox="0 0 14 14" fill="none" xmlns="http://www.w3.org/2000/svg">
<path d="M7.75077 7.21845L12.8356 1.62446C12.9476 1.50125 12.9753 1.33013 12.9079 1.17788C12.8406 1.02563 12.6953 0.931052 12.5288 0.931052H10.9383L11.4927 0.346361C11.5707 0.264111 11.5672 0.134255 11.485 0.0562711C11.4028 -0.0216586 11.2729 -0.0182406 11.1949 0.0640094L10.3728 0.93108H1.47124C1.30475 0.93108 1.15947 1.02566 1.09212 1.17791C1.02478 1.33019 1.0525 1.50131 1.16448 1.62449L6.24929 7.21845C6.30349 7.27806 6.36438 7.33023 6.43004 7.37477V12.3038C6.43004 12.5641 6.26482 12.7965 6.01892 12.882L4.31521 13.4743C4.31106 13.4758 4.30696 13.4773 4.30294 13.479C4.1826 13.5298 4.11662 13.6546 4.14246 13.7826C4.16832 13.9106 4.27759 14 4.40818 14H9.59182C9.72242 14 9.83171 13.9106 9.85758 13.7826C9.88344 13.6546 9.81743 13.5297 9.69709 13.479C9.69308 13.4773 9.68895 13.4758 9.68482 13.4743L7.98111 12.882C7.73524 12.7965 7.57 12.5641 7.57 12.3038V7.3748C7.63568 7.33023 7.69657 7.27806 7.75077 7.21845ZM10.5493 1.34145H12.5288C12.5301 1.34145 12.5309 1.34148 12.5311 1.34151C12.5323 1.34266 12.5335 1.3455 12.5336 1.34621C12.5336 1.34621 12.5332 1.34698 12.5319 1.34843L11.269 2.73776H10.2597C10.3519 2.4422 10.2932 2.09983 10.0914 1.8244L10.5493 1.34145ZM7.84633 13.2696L8.76672 13.5896H5.23331L6.1537 13.2696C6.56446 13.1268 6.84044 12.7387 6.84044 12.3038V7.53785C6.84949 7.5393 6.85862 7.54031 6.86773 7.54151C6.87254 7.54214 6.87735 7.54285 6.88216 7.54343C6.89305 7.54471 6.90396 7.54572 6.91487 7.54663C6.91815 7.5469 6.92143 7.54717 6.92471 7.54742C6.9497 7.54928 6.97481 7.55056 7.00004 7.55056C7.02531 7.55056 7.05044 7.54928 7.07549 7.54739C7.07866 7.54715 7.08186 7.5469 7.08503 7.54663C7.09605 7.5457 7.10704 7.54468 7.118 7.5434C7.1226 7.54288 7.12716 7.54217 7.13176 7.54157C7.14106 7.54034 7.15038 7.5393 7.15962 7.53782V12.3037C7.15959 12.7387 7.43557 13.1268 7.84633 13.2696ZM7.44709 6.94238C7.39749 6.99696 7.33998 7.04096 7.27695 7.07355C7.27542 7.07426 7.27384 7.07476 7.27233 7.07552C7.10182 7.16157 6.89819 7.1616 6.72767 7.07552C6.7262 7.07478 6.72461 7.07429 6.72311 7.07358C6.66008 7.04099 6.60257 6.99699 6.55295 6.94241L3.10405 3.14814H3.86494C3.97826 3.14814 4.07013 3.05626 4.07013 2.94295C4.07013 2.82964 3.97826 2.73776 3.86494 2.73776H2.731L1.46813 1.34843C1.46723 1.34744 1.46676 1.34679 1.46662 1.34668C1.46668 1.34506 1.46796 1.34225 1.4684 1.3417C1.4684 1.3417 1.46922 1.34145 1.47122 1.34145H9.98374L9.79373 1.54186C9.62611 1.43191 9.43443 1.36954 9.23824 1.36325C8.96661 1.35455 8.71841 1.45326 8.54013 1.64136C8.36182 1.82943 8.27637 2.08228 8.29956 2.35331C8.30259 2.38864 8.30757 2.42369 8.31418 2.45839C8.01816 2.41847 7.71932 2.50712 7.5111 2.72672C7.50768 2.73033 7.50456 2.7341 7.5012 2.73776H4.81976C4.70645 2.73776 4.61457 2.82964 4.61457 2.94295C4.61457 3.05626 4.70645 3.14814 4.81976 3.14814H7.28961C7.26172 3.27603 7.26079 3.41045 7.28592 3.54295C7.2509 3.53822 7.21562 3.53511 7.18018 3.53396C6.90833 3.52515 6.66038 3.62397 6.48207 3.81207C6.16453 4.14701 6.16188 4.67619 6.44961 5.06904L6.22277 5.30829C6.14481 5.39054 6.14826 5.5204 6.23051 5.59838C6.27018 5.63601 6.32096 5.65466 6.37166 5.65466C6.42599 5.65466 6.48027 5.63319 6.5206 5.59065L6.74728 5.35155C6.9149 5.4615 7.10655 5.52387 7.30279 5.53016C7.31389 5.53052 7.32491 5.53071 7.33593 5.53071C7.59477 5.53071 7.8299 5.43246 8.00093 5.25208C8.17924 5.06401 8.26469 4.81116 8.24151 4.54013C8.23847 4.50483 8.23349 4.4698 8.2269 4.4351C8.2727 4.44128 8.31859 4.44456 8.36417 4.44456C8.61324 4.44456 8.85401 4.35233 9.02999 4.16669C9.23821 3.94707 9.31081 3.64394 9.25517 3.35045C9.29019 3.35519 9.32547 3.3583 9.36088 3.35945C9.37198 3.35981 9.383 3.36 9.39402 3.36C9.61884 3.36 9.82569 3.28579 9.98825 3.14811H10.8961L7.44709 6.94238ZM7.80887 3.00907C7.90468 2.90803 8.03703 2.85827 8.17681 2.85827C8.33737 2.85827 8.50778 2.92392 8.64384 3.05293C8.89836 3.29429 8.93795 3.66726 8.73211 3.88437C8.52624 4.10142 8.15179 4.08179 7.89725 3.84059C7.89722 3.84056 7.89716 3.84051 7.89714 3.84048C7.64262 3.59915 7.60303 3.22618 7.80887 3.00907ZM7.70305 4.96975C7.6065 5.07158 7.46951 5.12468 7.31592 5.12003C7.15372 5.11484 6.99468 5.04588 6.86811 4.92586C6.61357 4.68453 6.57397 4.31156 6.77984 4.09445C6.87232 3.99692 7.00231 3.94384 7.14762 3.94384C7.15407 3.94384 7.16052 3.94395 7.16698 3.94414C7.32912 3.94934 7.48813 4.01827 7.61468 4.1382C7.6147 4.13823 7.61476 4.13828 7.61479 4.13831C7.74133 4.25832 7.81866 4.41344 7.8325 4.57515C7.84557 4.72776 7.7996 4.8679 7.70305 4.96975ZM8.70845 2.31831C8.69538 2.1657 8.74135 2.02557 8.8379 1.92371C8.93038 1.8262 9.06034 1.7731 9.20567 1.7731C9.21207 1.7731 9.21855 1.77321 9.22503 1.7734C9.38724 1.77863 9.54627 1.84756 9.67281 1.96757C9.92733 2.20888 9.96692 2.58188 9.76108 2.79899C9.66453 2.90081 9.52672 2.95392 9.37395 2.94927C9.21177 2.9441 9.05274 2.87514 8.92619 2.75513C8.79962 2.63514 8.72232 2.47999 8.70845 2.31831Z" fill="#929292"/>
</svg>
