<svg width="16" height="16" viewBox="0 0 16 16" fill="none" xmlns="http://www.w3.org/2000/svg">
<g clip-path="url(#clip0_14_771)">
<path d="M1.75001 9.21535C2.44037 9.21535 3.00002 8.6557 3.00002 7.96534C3.00002 7.27498 2.44037 6.71533 1.75001 6.71533C1.05965 6.71533 0.5 7.27498 0.5 7.96534C0.5 8.6557 1.05965 9.21535 1.75001 9.21535Z" fill="#838383"/>
<path d="M8.00001 9.21535C8.69037 9.21535 9.25002 8.6557 9.25002 7.96534C9.25002 7.27498 8.69037 6.71533 8.00001 6.71533C7.30965 6.71533 6.75 7.27498 6.75 7.96534C6.75 8.6557 7.30965 9.21535 8.00001 9.21535Z" fill="#838383"/>
<path d="M14.25 9.21535C14.9403 9.21535 15.5 8.6557 15.5 7.96534C15.5 7.27498 14.9403 6.71533 14.25 6.71533C13.5596 6.71533 13 7.27498 13 7.96534C13 8.6557 13.5596 9.21535 14.25 9.21535Z" fill="#838383"/>
</g>
<defs>
<clipPath id="clip0_14_771">
<rect width="15" height="15" fill="white" transform="translate(0.5 0.465332)"/>
</clipPath>
</defs>
</svg>
