<svg width="17" height="16" viewBox="0 0 17 16" fill="none" xmlns="http://www.w3.org/2000/svg">
<g clip-path="url(#clip0_7_66)">
<path d="M3.5 11.6667H1.83333C1.47971 11.6667 1.14057 11.8071 0.890524 12.0572C0.640476 12.3072 0.5 12.6464 0.5 13L0.5 14.6666C0.5 15.0203 0.640476 15.3594 0.890524 15.6095C1.14057 15.8595 1.47971 16 1.83333 16H3.5C3.85362 16 4.19276 15.8595 4.44281 15.6095C4.69285 15.3594 4.83333 15.0203 4.83333 14.6666V13C4.83333 12.6464 4.69285 12.3072 4.44281 12.0572C4.19276 11.8071 3.85362 11.6667 3.5 11.6667ZM3.5 14.6666H1.83333V13H3.5V14.6666Z" fill="#13A722"/>
<path d="M15.1667 11.6667H13.5C13.1464 11.6667 12.8073 11.8071 12.5572 12.0572C12.3072 12.3072 12.1667 12.6464 12.1667 13V14.6666C12.1667 15.0203 12.3072 15.3594 12.5572 15.6095C12.8073 15.8595 13.1464 16 13.5 16H15.1667C15.5203 16 15.8594 15.8595 16.1095 15.6095C16.3595 15.3594 16.5 15.0203 16.5 14.6666V13C16.5 12.6464 16.3595 12.3072 16.1095 12.0572C15.8594 11.8071 15.5203 11.6667 15.1667 11.6667ZM15.1667 14.6666H13.5V13H15.1667V14.6666Z" fill="#13A722"/>
<path d="M3.5 5.83334H1.83333C1.47971 5.83334 1.14057 5.97382 0.890524 6.22387C0.640476 6.47392 0.5 6.81305 0.5 7.16668L0.5 8.83334C0.5 9.18697 0.640476 9.5261 0.890524 9.77615C1.14057 10.0262 1.47971 10.1667 1.83333 10.1667H3.5C3.85362 10.1667 4.19276 10.0262 4.44281 9.77615C4.69285 9.5261 4.83333 9.18697 4.83333 8.83334V7.16668C4.83333 6.81305 4.69285 6.47392 4.44281 6.22387C4.19276 5.97382 3.85362 5.83334 3.5 5.83334ZM3.5 8.83334H1.83333V7.16668H3.5V8.83334Z" fill="#13A722"/>
<path d="M15.1667 5.83334H13.5C13.1464 5.83334 12.8073 5.97382 12.5572 6.22387C12.3072 6.47392 12.1667 6.81305 12.1667 7.16668V8.83334C12.1667 9.18697 12.3072 9.5261 12.5572 9.77615C12.8073 10.0262 13.1464 10.1667 13.5 10.1667H15.1667C15.5203 10.1667 15.8594 10.0262 16.1095 9.77615C16.3595 9.5261 16.5 9.18697 16.5 8.83334V7.16668C16.5 6.81305 16.3595 6.47392 16.1095 6.22387C15.8594 5.97382 15.5203 5.83334 15.1667 5.83334ZM15.1667 8.83334H13.5V7.16668H15.1667V8.83334Z" fill="#13A722"/>
<path d="M3.5 0H1.83333C1.47971 0 1.14057 0.140476 0.890524 0.390524C0.640476 0.640573 0.5 0.979711 0.5 1.33333L0.5 3C0.5 3.35362 0.640476 3.69276 0.890524 3.94281C1.14057 4.19286 1.47971 4.33333 1.83333 4.33333H3.5C3.85362 4.33333 4.19276 4.19286 4.44281 3.94281C4.69286 3.69276 4.83333 3.35362 4.83333 3V1.33333C4.83333 0.979711 4.69286 0.640573 4.44281 0.390524C4.19276 0.140476 3.85362 0 3.5 0V0ZM3.5 3H1.83333V1.33333H3.5V3Z" fill="#13A722"/>
<path d="M9.33331 11.6667H7.66665C7.31302 11.6667 6.97389 11.8071 6.72384 12.0572C6.47379 12.3072 6.33331 12.6464 6.33331 13V14.6666C6.33331 15.0203 6.47379 15.3594 6.72384 15.6095C6.97389 15.8595 7.31302 16 7.66665 16H9.33331C9.68694 16 10.0261 15.8595 10.2761 15.6095C10.5262 15.3594 10.6666 15.0203 10.6666 14.6666V13C10.6666 12.6464 10.5262 12.3072 10.2761 12.0572C10.0261 11.8071 9.68694 11.6667 9.33331 11.6667ZM9.33331 14.6666H7.66665V13H9.33331V14.6666Z" fill="#13A722"/>
<path d="M9.33331 5.83334H7.66665C7.31302 5.83334 6.97389 5.97382 6.72384 6.22387C6.47379 6.47392 6.33331 6.81305 6.33331 7.16668V8.83334C6.33331 9.18697 6.47379 9.5261 6.72384 9.77615C6.97389 10.0262 7.31302 10.1667 7.66665 10.1667H9.33331C9.68694 10.1667 10.0261 10.0262 10.2761 9.77615C10.5262 9.5261 10.6666 9.18697 10.6666 8.83334V7.16668C10.6666 6.81305 10.5262 6.47392 10.2761 6.22387C10.0261 5.97382 9.68694 5.83334 9.33331 5.83334ZM9.33331 8.83334H7.66665V7.16668H9.33331V8.83334Z" fill="#13A722"/>
<path d="M9.33331 0H7.66665C7.31302 0 6.97389 0.140476 6.72384 0.390524C6.47379 0.640572 6.33331 0.979711 6.33331 1.33333V3C6.33331 3.35362 6.47379 3.69276 6.72384 3.94281C6.97389 4.19285 7.31302 4.33333 7.66665 4.33333H9.33331C9.68694 4.33333 10.0261 4.19285 10.2761 3.94281C10.5262 3.69276 10.6666 3.35362 10.6666 3V1.33333C10.6666 0.979711 10.5262 0.640572 10.2761 0.390524C10.0261 0.140476 9.68694 0 9.33331 0V0ZM9.33331 3H7.66665V1.33333H9.33331V3Z" fill="#13A722"/>
<path d="M15.1667 0H13.5C13.1464 0 12.8073 0.140476 12.5572 0.390524C12.3072 0.640572 12.1667 0.979711 12.1667 1.33333V3C12.1667 3.35362 12.3072 3.69276 12.5572 3.94281C12.8073 4.19285 13.1464 4.33333 13.5 4.33333H15.1667C15.5203 4.33333 15.8594 4.19285 16.1095 3.94281C16.3595 3.69276 16.5 3.35362 16.5 3V1.33333C16.5 0.979711 16.3595 0.640572 16.1095 0.390524C15.8594 0.140476 15.5203 0 15.1667 0V0ZM15.1667 3H13.5V1.33333H15.1667V3Z" fill="#13A722"/>
</g>
<defs>
<clipPath id="clip0_7_66">
<rect width="16" height="16" fill="white" transform="translate(0.5)"/>
</clipPath>
</defs>
</svg>
