<svg width="5" height="11" viewBox="0 0 5 11" fill="none" xmlns="http://www.w3.org/2000/svg">
<path d="M4.38844 3.76218L1.18902 0.514699C1.05842 0.382924 0.881748 0.30896 0.697599 0.30896C0.513451 0.30896 0.336784 0.382924 0.206184 0.514699C0.140851 0.580472 0.0889955 0.658723 0.0536076 0.74494C0.0182196 0.831157 0 0.923633 0 1.01703C0 1.11043 0.0182196 1.20291 0.0536076 1.28913C0.0889955 1.37534 0.140851 1.45359 0.206184 1.51937L3.41258 4.75977C3.47791 4.82554 3.52977 4.9038 3.56516 4.99001C3.60055 5.07623 3.61877 5.1687 3.61877 5.2621C3.61877 5.3555 3.60055 5.44798 3.56516 5.5342C3.52977 5.62041 3.47791 5.69867 3.41258 5.76444L0.206184 9.00484C0.0749283 9.13713 0.000822451 9.31693 0.000168847 9.50467C-0.000484758 9.69242 0.072368 9.87275 0.202699 10.006C0.333031 10.1392 0.510165 10.2144 0.695135 10.2151C0.880105 10.2157 1.05776 10.1418 1.18902 10.0095L4.38844 6.76203C4.78004 6.36405 5 5.82458 5 5.2621C5 4.69963 4.78004 4.16016 4.38844 3.76218Z" fill="white"/>
</svg>
