<svg width="22" height="22" viewBox="0 0 22 22" fill="none" xmlns="http://www.w3.org/2000/svg">
<g clip-path="url(#clip0_16_1057)">
<path d="M17.6211 11.4436C17.0656 10.3591 15.7135 9.94755 14.3898 10.988C14.377 10.9981 13.0662 12.0036 11.0028 12.0036C8.93934 12.0036 7.62851 10.9971 7.61567 10.988C6.29751 9.94664 4.93442 10.3546 4.38259 11.4463C4.38076 11.4491 4.37984 11.4518 4.37801 11.4555C3.55759 13.1339 4.91242 14.0084 6.00234 14.7115C6.67609 15.1451 7.53776 15.4723 8.57268 15.6886L5.63476 18.633C3.861 20.4031 6.64034 23.1961 8.43243 21.4444L11.0119 18.8521C12.0047 19.8466 12.9296 20.7752 13.5969 21.4545C15.3661 23.1916 18.1638 20.4471 16.4001 18.6366C14.2963 16.5347 13.8435 16.081 13.4457 15.6896C15.642 15.2193 18.6973 13.6784 17.6211 11.4436ZM12.0982 14.519C11.6233 14.2907 10.9927 15.1579 11.5115 15.6969L11.517 15.7024C11.5179 15.7033 11.5198 15.7051 11.5207 15.7061C11.5225 15.7079 11.5234 15.7097 11.5253 15.7106C11.7893 15.9737 15.3413 19.5221 15.4202 19.6019C15.9134 20.1088 15.0443 20.9466 14.5668 20.481C13.7143 19.6138 12.3622 18.2599 11.4959 17.3918C11.2283 17.1232 10.791 17.1214 10.5224 17.3918L7.46259 20.4663C6.97767 20.9402 6.11326 20.0941 6.60459 19.6037L10.4949 15.7061C10.4968 15.7042 10.4986 15.7024 10.4995 15.7006C10.9826 15.2257 10.4949 14.3457 9.92659 14.5135C8.57268 14.3549 7.47543 14.024 6.74484 13.5546C5.33317 12.6426 5.40376 12.4821 5.60817 12.0632C6.20217 10.9256 7.25451 13.3786 11.0009 13.3786C13.5667 13.3786 15.1763 12.1182 15.2396 12.0678C15.6576 11.7396 16.148 11.5866 16.3891 12.055C16.5935 12.4794 16.6696 12.638 15.2543 13.5574C14.2881 14.1725 12.9223 14.4209 12.0982 14.519Z" fill="black"/>
<path d="M10.9991 9.16399C12.7902 9.16399 14.2468 7.70465 14.2468 5.91165C14.2468 4.11132 12.7902 2.64648 10.9991 2.64648C9.20883 2.64648 7.75224 4.11132 7.75224 5.91165C7.75133 7.70465 9.20791 9.16399 10.9991 9.16399ZM10.9991 4.02149C12.0312 4.02149 12.8718 4.8694 12.8718 5.91165C12.8718 6.94657 12.0312 7.78899 10.9991 7.78899C9.96691 7.78899 9.12633 6.94657 9.12633 5.91074C9.12633 4.8694 9.96599 4.02149 10.9991 4.02149Z" fill="black"/>
<path d="M10.9991 11.8094C14.2523 11.8094 16.8997 9.16299 16.8997 5.91066C16.8988 2.65192 14.2523 0 10.9991 0C7.74583 0 5.0985 2.65192 5.0985 5.91066C5.0985 9.16299 7.74491 11.8094 10.9991 11.8094V11.8094ZM10.9991 1.375C13.4943 1.375 15.5247 3.41 15.5247 5.91066C15.5247 8.40491 13.4952 10.4344 10.9991 10.4344C8.503 10.4344 6.4735 8.40491 6.4735 5.91066C6.4735 3.41 8.503 1.375 10.9991 1.375V1.375Z" fill="black"/>
</g>
<defs>
<clipPath id="clip0_16_1057">
<rect width="22" height="22" fill="white"/>
</clipPath>
</defs>
</svg>
