<svg width="14" height="14" viewBox="0 0 14 14" fill="none" xmlns="http://www.w3.org/2000/svg">
<path d="M12.0453 8.60106C11.7079 8.28301 11.2599 8.10592 10.7942 8.10657C10.3285 8.10722 9.88099 8.28555 9.54452 8.60454L8.43086 9.5343C7.52186 9.16159 6.69612 8.61464 6.00105 7.92485C5.30598 7.23506 4.75528 6.41603 4.38056 5.51477L5.31542 4.4148C5.63651 4.08075 5.8159 3.63731 5.81655 3.176C5.8172 2.71469 5.63907 2.27075 5.31893 1.93581C5.31893 1.93581 4.23682 0.544636 4.21871 0.52669C3.88534 0.194236 3.43335 0.005084 2.96039 0.000100994C2.48744 -0.00488201 2.03149 0.174705 1.69106 0.500059L1.01913 1.07899C-3.49101 5.83203 8.14748 17.369 12.9387 12.8313L13.4715 12.2234C13.81 11.887 14 11.4314 14 10.9565C14 10.4815 13.81 10.0259 13.4715 9.68946C13.4523 9.67383 12.0453 8.60164 12.0453 8.60164V8.60106Z" fill="white"/>
</svg>
