<svg width="5" height="11" viewBox="0 0 5 11" fill="none" xmlns="http://www.w3.org/2000/svg">
<path d="M0.611558 7.23782L3.81098 10.4853C3.94158 10.6171 4.11825 10.691 4.3024 10.691C4.48655 10.691 4.66322 10.6171 4.79382 10.4853C4.85915 10.4195 4.911 10.3413 4.94639 10.2551C4.98178 10.1688 5 10.0764 5 9.98297C5 9.88957 4.98178 9.79709 4.94639 9.71087C4.911 9.62466 4.85915 9.54641 4.79382 9.48063L1.58742 6.24023C1.52209 6.17446 1.47023 6.0962 1.43484 6.00999C1.39945 5.92377 1.38123 5.8313 1.38123 5.7379C1.38123 5.6445 1.39945 5.55202 1.43484 5.4658C1.47023 5.37959 1.52209 5.30133 1.58742 5.23556L4.79382 1.99516C4.92507 1.86287 4.99918 1.68307 4.99983 1.49533C5.00048 1.30758 4.92763 1.12725 4.7973 0.994027C4.66697 0.8608 4.48984 0.785581 4.30486 0.784917C4.11989 0.784253 3.94224 0.858201 3.81098 0.99049L0.611558 4.23797C0.219959 4.63595 0 5.17542 0 5.7379C0 6.30037 0.219959 6.83984 0.611558 7.23782Z" fill="white"/>
</svg>
