<svg width="15" height="16" viewBox="0 0 15 16" fill="none" xmlns="http://www.w3.org/2000/svg">
<path d="M12.2969 2.22379C11.505 1.56483 10.5852 1.07702 9.59548 0.791106C8.60575 0.505192 7.56753 0.42737 6.54624 0.562544C4.6569 0.807992 2.93179 1.76328 1.72119 3.23442C0.510585 4.70557 -0.0947615 6.5823 0.028064 8.48355C0.15089 10.3848 0.99268 12.168 2.38251 13.4712C3.77234 14.7744 5.60603 15.4997 7.51124 15.5H11.875C12.7035 15.4991 13.4978 15.1695 14.0836 14.5837C14.6694 13.9978 14.999 13.2035 15 12.375V7.56817V7.52879C14.9338 6.5072 14.66 5.50983 14.1952 4.59768C13.7304 3.68553 13.0845 2.87777 12.2969 2.22379ZM4.99999 4.87504H7.49999C7.66575 4.87504 7.82472 4.94089 7.94193 5.0581C8.05914 5.17531 8.12499 5.33428 8.12499 5.50004C8.12499 5.6658 8.05914 5.82477 7.94193 5.94198C7.82472 6.0592 7.66575 6.12504 7.49999 6.12504H4.99999C4.83423 6.12504 4.67526 6.0592 4.55805 5.94198C4.44084 5.82477 4.37499 5.6658 4.37499 5.50004C4.37499 5.33428 4.44084 5.17531 4.55805 5.0581C4.67526 4.94089 4.83423 4.87504 4.99999 4.87504ZM9.99999 11.125H4.99999C4.83423 11.125 4.67526 11.0592 4.55805 10.942C4.44084 10.8248 4.37499 10.6658 4.37499 10.5C4.37499 10.3343 4.44084 10.1753 4.55805 10.0581C4.67526 9.94089 4.83423 9.87504 4.99999 9.87504H9.99999C10.1657 9.87504 10.3247 9.94089 10.4419 10.0581C10.5591 10.1753 10.625 10.3343 10.625 10.5C10.625 10.6658 10.5591 10.8248 10.4419 10.942C10.3247 11.0592 10.1657 11.125 9.99999 11.125ZM9.99999 8.62504H4.99999C4.83423 8.62504 4.67526 8.55919 4.55805 8.44198C4.44084 8.32477 4.37499 8.1658 4.37499 8.00004C4.37499 7.83428 4.44084 7.67531 4.55805 7.5581C4.67526 7.44089 4.83423 7.37504 4.99999 7.37504H9.99999C10.1657 7.37504 10.3247 7.44089 10.4419 7.5581C10.5591 7.67531 10.625 7.83428 10.625 8.00004C10.625 8.1658 10.5591 8.32477 10.4419 8.44198C10.3247 8.55919 10.1657 8.62504 9.99999 8.62504Z" fill="white"/>
</svg>
