<svg width="24" height="24" viewBox="0 0 24 24" fill="none" xmlns="http://www.w3.org/2000/svg">
<g clip-path="url(#clip0_39_1167)">
<path d="M23 19V17C22.9964 14.2573 21.9692 11.6148 20.1196 9.58962C18.27 7.56448 15.7311 6.3026 13 6.051V4.723C13.3813 4.50287 13.6793 4.16307 13.8478 3.75632C14.0162 3.34956 14.0458 2.89858 13.9318 2.47331C13.8179 2.04805 13.5668 1.67226 13.2175 1.40424C12.8682 1.13623 12.4403 0.990952 12 0.990952C11.5597 0.990952 11.1318 1.13623 10.7825 1.40424C10.4332 1.67226 10.1821 2.04805 10.0681 2.47331C9.9542 2.89858 9.98376 3.34956 10.1522 3.75632C10.3207 4.16307 10.6187 4.50287 11 4.723V6.051C8.26889 6.3026 5.73002 7.56448 3.88041 9.58962C2.03079 11.6148 1.00363 14.2573 1 17V19C0.734783 19 0.48043 19.1054 0.292893 19.2929C0.105357 19.4804 0 19.7348 0 20C0 20.2652 0.105357 20.5196 0.292893 20.7071C0.48043 20.8946 0.734783 21 1 21H23C23.2652 21 23.5196 20.8946 23.7071 20.7071C23.8946 20.5196 24 20.2652 24 20C24 19.7348 23.8946 19.4804 23.7071 19.2929C23.5196 19.1054 23.2652 19 23 19ZM3 17C3.473 5.066 20.531 5.075 21 17V19H3V17Z" fill="#9B9B9B"/>
</g>
<defs>
<clipPath id="clip0_39_1167">
<rect width="24" height="24" fill="white"/>
</clipPath>
</defs>
</svg>
