<svg width="22" height="12" viewBox="0 0 22 12" fill="none" xmlns="http://www.w3.org/2000/svg">
<path d="M21.0761 3.9389L17.6898 0.517647C17.6085 0.435635 17.5117 0.370539 17.4051 0.326117C17.2984 0.281694 17.1841 0.258824 17.0686 0.258824C16.953 0.258824 16.8387 0.281694 16.732 0.326117C16.6254 0.370539 16.5286 0.435635 16.4473 0.517647C16.2843 0.681589 16.1929 0.90336 16.1929 1.13452C16.1929 1.36568 16.2843 1.58746 16.4473 1.7514L19.5623 4.89265H1.72106C1.489 4.89265 1.26644 4.98483 1.10234 5.14893C0.938249 5.31302 0.846062 5.53558 0.846062 5.76765C0.846062 5.99971 0.938249 6.22227 1.10234 6.38637C1.26644 6.55046 1.489 6.64265 1.72106 6.64265H19.6148L16.4473 9.8014C16.3653 9.88274 16.3002 9.97952 16.2558 10.0861C16.2114 10.1928 16.1885 10.3071 16.1885 10.4226C16.1885 10.5382 16.2114 10.6525 16.2558 10.7592C16.3002 10.8658 16.3653 10.9626 16.4473 11.0439C16.5286 11.1259 16.6254 11.191 16.732 11.2354C16.8387 11.2799 16.953 11.3027 17.0686 11.3027C17.1841 11.3027 17.2984 11.2799 17.4051 11.2354C17.5117 11.191 17.6085 11.1259 17.6898 11.0439L21.0761 7.6489C21.5676 7.15671 21.8437 6.48952 21.8437 5.7939C21.8437 5.09827 21.5676 4.43109 21.0761 3.9389Z" fill="white"/>
</svg>
