<svg width="17" height="17" viewBox="0 0 17 17" fill="none" xmlns="http://www.w3.org/2000/svg">
<g clip-path="url(#clip0_55_2728)">
<path d="M16.7927 15.7909L12.5646 11.5628C13.7168 10.1537 14.2833 8.35557 14.1469 6.54044C14.0106 4.72531 13.1817 3.03204 11.8319 1.81087C10.4821 0.589695 8.71455 -0.0659513 6.89488 -0.0204537C5.0752 0.0250438 3.34263 0.768204 2.05552 2.05531C0.768416 3.34242 0.0252555 5.07499 -0.020242 6.89466C-0.0657396 8.71434 0.589907 10.4819 1.81108 11.8317C3.03225 13.1815 4.72553 14.0103 6.54065 14.1467C8.35578 14.2831 10.1539 13.7166 11.563 12.5644L15.7911 16.7925C15.9247 16.9215 16.1036 16.9929 16.2893 16.9913C16.4751 16.9897 16.6527 16.9152 16.784 16.7838C16.9154 16.6525 16.9899 16.4748 16.9915 16.2891C16.9931 16.1034 16.9217 15.9245 16.7927 15.7909ZM7.08355 12.75C5.96278 12.75 4.86719 12.4177 3.93531 11.795C3.00344 11.1723 2.27712 10.2873 1.84823 9.25187C1.41933 8.21643 1.30711 7.07705 1.52576 5.97782C1.74441 4.8786 2.28411 3.86889 3.07661 3.0764C3.8691 2.2839 4.87881 1.7442 5.97803 1.52555C7.07726 1.3069 8.21664 1.41912 9.25209 1.84802C10.2875 2.27691 11.1725 3.00322 11.7952 3.9351C12.4179 4.86698 12.7502 5.96257 12.7502 7.08333C12.7485 8.58571 12.151 10.0261 11.0886 11.0884C10.0263 12.1508 8.58592 12.7483 7.08355 12.75Z" fill="#A9A9A9"/>
</g>
<defs>
<clipPath id="clip0_55_2728">
<rect width="17" height="17" fill="white"/>
</clipPath>
</defs>
</svg>
