<svg width="15" height="14" viewBox="0 0 15 14" fill="none" xmlns="http://www.w3.org/2000/svg">
<g clip-path="url(#clip0_43_3061)">
<path d="M1.08333 2.77074H2.67933C2.80454 3.23142 3.07785 3.63809 3.45711 3.92803C3.83636 4.21797 4.30049 4.37506 4.77787 4.37506C5.25526 4.37506 5.71939 4.21797 6.09864 3.92803C6.4779 3.63809 6.75121 3.23142 6.87641 2.77074H13.9167C14.0714 2.77074 14.2197 2.70928 14.3291 2.59988C14.4385 2.49049 14.5 2.34212 14.5 2.18741C14.5 2.0327 14.4385 1.88432 14.3291 1.77493C14.2197 1.66553 14.0714 1.60407 13.9167 1.60407H6.87641C6.75121 1.1434 6.4779 0.736718 6.09864 0.44678C5.71939 0.156842 5.25526 -0.000244141 4.77787 -0.000244141C4.30049 -0.000244141 3.83636 0.156842 3.45711 0.44678C3.07785 0.736718 2.80454 1.1434 2.67933 1.60407H1.08333C0.928624 1.60407 0.780251 1.66553 0.670854 1.77493C0.561458 1.88432 0.5 2.0327 0.5 2.18741C0.5 2.34212 0.561458 2.49049 0.670854 2.59988C0.780251 2.70928 0.928624 2.77074 1.08333 2.77074ZM4.77758 1.16657C4.97948 1.16657 5.17685 1.22644 5.34473 1.33861C5.5126 1.45079 5.64344 1.61022 5.72071 1.79675C5.79797 1.98328 5.81819 2.18854 5.7788 2.38656C5.73941 2.58458 5.64219 2.76648 5.49942 2.90924C5.35665 3.05201 5.17476 3.14924 4.97674 3.18862C4.77871 3.22801 4.57346 3.2078 4.38693 3.13053C4.20039 3.05327 4.04096 2.92243 3.92879 2.75455C3.81662 2.58668 3.75675 2.38931 3.75675 2.18741C3.75706 1.91676 3.86471 1.65729 4.05609 1.46591C4.24746 1.27453 4.50694 1.16688 4.77758 1.16657Z" fill="#FFFEFE"/>
<path d="M13.9167 6.41665H12.3207C12.1957 5.95587 11.9225 5.54905 11.5432 5.25899C11.164 4.96893 10.6999 4.81177 10.2224 4.81177C9.74498 4.81177 9.28082 4.96893 8.90159 5.25899C8.52236 5.54905 8.24916 5.95587 8.12416 6.41665H1.08333C0.928624 6.41665 0.780251 6.47811 0.670854 6.58751C0.561458 6.6969 0.5 6.84528 0.5 6.99999C0.5 7.1547 0.561458 7.30307 0.670854 7.41247C0.780251 7.52186 0.928624 7.58332 1.08333 7.58332H8.12416C8.24916 8.0441 8.52236 8.45093 8.90159 8.74099C9.28082 9.03105 9.74498 9.18821 10.2224 9.18821C10.6999 9.18821 11.164 9.03105 11.5432 8.74099C11.9225 8.45093 12.1957 8.0441 12.3207 7.58332H13.9167C14.0714 7.58332 14.2197 7.52186 14.3291 7.41247C14.4385 7.30307 14.5 7.1547 14.5 6.99999C14.5 6.84528 14.4385 6.6969 14.3291 6.58751C14.2197 6.47811 14.0714 6.41665 13.9167 6.41665ZM10.2224 8.02082C10.0205 8.02082 9.82314 7.96095 9.65527 7.84878C9.48739 7.73661 9.35655 7.57718 9.27929 7.39064C9.20202 7.20411 9.18181 6.99886 9.2212 6.80083C9.26058 6.60281 9.35781 6.42092 9.50058 6.27815C9.64334 6.13538 9.82524 6.03816 10.0233 5.99877C10.2213 5.95938 10.4265 5.9796 10.6131 6.05686C10.7996 6.13412 10.959 6.26497 11.0712 6.43284C11.1834 6.60072 11.2432 6.79809 11.2432 6.99999C11.2429 7.27063 11.1353 7.53011 10.9439 7.72148C10.7525 7.91286 10.4931 8.02051 10.2224 8.02082Z" fill="#FFFEFE"/>
<path d="M13.9167 11.2292H6.87641C6.75121 10.7685 6.4779 10.3618 6.09864 10.0719C5.71939 9.78196 5.25526 9.62488 4.77787 9.62488C4.30049 9.62488 3.83636 9.78196 3.45711 10.0719C3.07785 10.3618 2.80454 10.7685 2.67933 11.2292H1.08333C0.928624 11.2292 0.780251 11.2907 0.670854 11.4C0.561458 11.5094 0.5 11.6578 0.5 11.8125C0.5 11.9672 0.561458 12.1156 0.670854 12.225C0.780251 12.3344 0.928624 12.3959 1.08333 12.3959H2.67933C2.80454 12.8565 3.07785 13.2632 3.45711 13.5532C3.83636 13.8431 4.30049 14.0002 4.77787 14.0002C5.25526 14.0002 5.71939 13.8431 6.09864 13.5532C6.4779 13.2632 6.75121 12.8565 6.87641 12.3959H13.9167C14.0714 12.3959 14.2197 12.3344 14.3291 12.225C14.4385 12.1156 14.5 11.9672 14.5 11.8125C14.5 11.6578 14.4385 11.5094 14.3291 11.4C14.2197 11.2907 14.0714 11.2292 13.9167 11.2292ZM4.77758 12.8334C4.57568 12.8334 4.37831 12.7735 4.21044 12.6613C4.04256 12.5492 3.91172 12.3897 3.83446 12.2032C3.75719 12.0167 3.73698 11.8114 3.77636 11.6134C3.81575 11.4154 3.91298 11.2335 4.05574 11.0907C4.19851 10.9479 4.38041 10.8507 4.57843 10.8113C4.77645 10.7719 4.98171 10.7921 5.16824 10.8694C5.35477 10.9467 5.5142 11.0775 5.62637 11.2454C5.73854 11.4133 5.79842 11.6106 5.79842 11.8125C5.79795 12.0831 5.69025 12.3425 5.49891 12.5339C5.30757 12.7252 5.04818 12.8329 4.77758 12.8334Z" fill="#FFFEFE"/>
</g>
<defs>
<clipPath id="clip0_43_3061">
<rect width="14" height="14" fill="white" transform="translate(0.5)"/>
</clipPath>
</defs>
</svg>
