<svg width="16" height="14" viewBox="0 0 16 14" fill="none" xmlns="http://www.w3.org/2000/svg">
<g clip-path="url(#clip0_14_308)">
<path d="M15.5 5.25898C15.5 4.79722 15.3025 4.35437 14.9508 4.02786C14.5992 3.70134 14.1223 3.51791 13.625 3.51791H11.75C11.75 2.59439 11.3549 1.70869 10.6517 1.05566C9.94839 0.402634 8.99456 0.0357666 8 0.0357666C7.00544 0.0357666 6.05161 0.402634 5.34835 1.05566C4.64509 1.70869 4.25 2.59439 4.25 3.51791H2.375C1.87772 3.51791 1.40081 3.70134 1.04917 4.02786C0.697544 4.35437 0.5 4.79722 0.5 5.25898L0.5 11.0626C0.500992 11.8319 0.830551 12.5694 1.41639 13.1134C2.00222 13.6574 2.7965 13.9634 3.625 13.9643H12.375C13.2035 13.9634 13.9978 13.6574 14.5836 13.1134C15.1694 12.5694 15.499 11.8319 15.5 11.0626V5.25898ZM5.5 3.51791C5.5 2.90223 5.76339 2.31176 6.23223 1.87641C6.70107 1.44106 7.33696 1.19648 8 1.19648C8.66304 1.19648 9.29893 1.44106 9.76777 1.87641C10.2366 2.31176 10.5 2.90223 10.5 3.51791H5.5Z" fill="white"/>
</g>
<defs>
<clipPath id="clip0_14_308">
<rect width="15" height="13.9286" fill="white" transform="translate(0.5 0.0357666)"/>
</clipPath>
</defs>
</svg>
