<svg width="15" height="14" viewBox="0 0 15 14" fill="none" xmlns="http://www.w3.org/2000/svg">
<g clip-path="url(#clip0_229_416)">
<path d="M15 5.25898C15 4.79722 14.8025 4.35437 14.4508 4.02786C14.0992 3.70134 13.6223 3.51791 13.125 3.51791H11.25C11.25 2.59439 10.8549 1.70869 10.1517 1.05566C9.44839 0.402634 8.49456 0.0357666 7.5 0.0357666C6.50544 0.0357666 5.55161 0.402634 4.84835 1.05566C4.14509 1.70869 3.75 2.59439 3.75 3.51791H1.875C1.37772 3.51791 0.900805 3.70134 0.549175 4.02786C0.197544 4.35437 0 4.79722 0 5.25898L0 11.0626C0.000992411 11.8319 0.330551 12.5694 0.916387 13.1134C1.50222 13.6574 2.2965 13.9634 3.125 13.9643H11.875C12.7035 13.9634 13.4978 13.6574 14.0836 13.1134C14.6694 12.5694 14.999 11.8319 15 11.0626V5.25898ZM5 3.51791C5 2.90223 5.26339 2.31176 5.73223 1.87641C6.20107 1.44106 6.83696 1.19648 7.5 1.19648C8.16304 1.19648 8.79893 1.44106 9.26777 1.87641C9.73661 2.31176 10 2.90223 10 3.51791H5Z" fill="#BEBEBE"/>
</g>
<defs>
<clipPath id="clip0_229_416">
<rect width="15" height="13.9286" fill="white" transform="translate(0 0.0357666)"/>
</clipPath>
</defs>
</svg>
