<svg width="17" height="16" viewBox="0 0 17 16" fill="none" xmlns="http://www.w3.org/2000/svg">
<path d="M16.5 6.66657C16.5 6.6179 16.4947 6.56939 16.484 6.5219L15.6173 2.6099C15.4563 1.8674 15.0449 1.20282 14.4521 0.727624C13.8593 0.252424 13.1211 -0.00451017 12.3613 -9.6662e-05H4.63867C3.87937 -0.00389686 3.14182 0.253318 2.54955 0.728467C1.95729 1.20362 1.54627 1.86784 1.38533 2.6099L0.516001 6.5219C0.50534 6.56939 0.499974 6.6179 0.500001 6.66657V7.33323C0.499463 7.9823 0.736615 8.60909 1.16667 9.09523V12.6666C1.16773 13.5503 1.51926 14.3975 2.14415 15.0224C2.76904 15.6473 3.61627 15.9988 4.5 15.9999H12.5C13.3837 15.9988 14.231 15.6473 14.8559 15.0224C15.4808 14.3975 15.8323 13.5503 15.8333 12.6666V9.09523C16.2634 8.60909 16.5006 7.9823 16.5 7.33323V6.66657ZM1.83334 6.73924L2.68667 2.89924C2.78336 2.45407 3.03001 2.05562 3.38534 1.77055C3.74068 1.48549 4.18313 1.3311 4.63867 1.33324H5.16667V3.33324C5.16667 3.51005 5.23691 3.67962 5.36193 3.80464C5.48696 3.92966 5.65653 3.9999 5.83334 3.9999C6.01015 3.9999 6.17972 3.92966 6.30474 3.80464C6.42977 3.67962 6.50001 3.51005 6.50001 3.33324V1.33324H10.5V3.33324C10.5 3.51005 10.5702 3.67962 10.6953 3.80464C10.8203 3.92966 10.9899 3.9999 11.1667 3.9999C11.3435 3.9999 11.5131 3.92966 11.6381 3.80464C11.7631 3.67962 11.8333 3.51005 11.8333 3.33324V1.33324H12.3613C12.8169 1.3311 13.2593 1.48549 13.6147 1.77055C13.97 2.05562 14.2166 2.45407 14.3133 2.89924L15.1667 6.73924V7.33323C15.1667 7.68686 15.0262 8.026 14.7762 8.27604C14.5261 8.52609 14.187 8.66657 13.8333 8.66657H13.1667C12.8131 8.66657 12.4739 8.52609 12.2239 8.27604C11.9738 8.026 11.8333 7.68686 11.8333 7.33323C11.8333 7.15642 11.7631 6.98686 11.6381 6.86183C11.5131 6.73681 11.3435 6.66657 11.1667 6.66657C10.9899 6.66657 10.8203 6.73681 10.6953 6.86183C10.5702 6.98686 10.5 7.15642 10.5 7.33323C10.5 7.68686 10.3595 8.026 10.1095 8.27604C9.85943 8.52609 9.5203 8.66657 9.16667 8.66657H7.83334C7.47972 8.66657 7.14058 8.52609 6.89053 8.27604C6.64048 8.026 6.50001 7.68686 6.50001 7.33323C6.50001 7.15642 6.42977 6.98686 6.30474 6.86183C6.17972 6.73681 6.01015 6.66657 5.83334 6.66657C5.65653 6.66657 5.48696 6.73681 5.36193 6.86183C5.23691 6.98686 5.16667 7.15642 5.16667 7.33323C5.16667 7.68686 5.0262 8.026 4.77615 8.27604C4.5261 8.52609 4.18696 8.66657 3.83334 8.66657H3.16667C2.81305 8.66657 2.47391 8.52609 2.22386 8.27604C1.97381 8.026 1.83334 7.68686 1.83334 7.33323V6.73924ZM12.5 14.6666H4.5C3.96957 14.6666 3.46086 14.4559 3.08579 14.0808C2.71072 13.7057 2.5 13.197 2.5 12.6666V9.91523C2.71774 9.97161 2.94176 10.0001 3.16667 9.9999H3.83334C4.21188 10.0001 4.58611 9.9195 4.93101 9.76349C5.27591 9.60748 5.58354 9.37965 5.83334 9.09523C6.08314 9.37965 6.39077 9.60748 6.73567 9.76349C7.08057 9.9195 7.4548 10.0001 7.83334 9.9999H9.16667C9.54522 10.0001 9.91944 9.9195 10.2643 9.76349C10.6092 9.60748 10.9169 9.37965 11.1667 9.09523C11.4165 9.37965 11.7241 9.60748 12.069 9.76349C12.4139 9.9195 12.7881 10.0001 13.1667 9.9999H13.8333C14.0583 10.0001 14.2823 9.97161 14.5 9.91523V12.6666C14.5 13.197 14.2893 13.7057 13.9142 14.0808C13.5392 14.4559 13.0304 14.6666 12.5 14.6666Z" fill="#13A722"/>
</svg>
