<svg width="18" height="17" viewBox="0 0 18 17" fill="none" xmlns="http://www.w3.org/2000/svg">
<g clip-path="url(#clip0_43_3644)">
<path d="M18 6.41071C18 5.8566 17.7629 5.32518 17.341 4.93336C16.919 4.54154 16.3467 4.32142 15.75 4.32142H13.5C13.5 3.2132 13.0259 2.15036 12.182 1.36673C11.3381 0.583094 10.1935 0.142853 9 0.142853C7.80653 0.142853 6.66193 0.583094 5.81802 1.36673C4.97411 2.15036 4.5 3.2132 4.5 4.32142H2.25C1.65326 4.32142 1.08097 4.54154 0.65901 4.93336C0.237053 5.32518 0 5.8566 0 6.41071L0 13.375C0.00119089 14.2982 0.396661 15.1832 1.09966 15.836C1.80267 16.4888 2.7558 16.856 3.75 16.8571H14.25C15.2442 16.856 16.1973 16.4888 16.9003 15.836C17.6033 15.1832 17.9988 14.2982 18 13.375V6.41071ZM6 4.32142C6 3.58261 6.31607 2.87405 6.87868 2.35163C7.44129 1.8292 8.20435 1.53571 9 1.53571C9.79565 1.53571 10.5587 1.8292 11.1213 2.35163C11.6839 2.87405 12 3.58261 12 4.32142H6Z" fill="white"/>
</g>
<defs>
<clipPath id="clip0_43_3644">
<rect width="18" height="16.7143" fill="white" transform="translate(0 0.142853)"/>
</clipPath>
</defs>
</svg>
