<svg width="20" height="20" viewBox="0 0 20 20" fill="none" xmlns="http://www.w3.org/2000/svg">
<g clip-path="url(#clip0_56_3204)">
<path d="M17.9183 16.4927L17.0253 5.23842C16.9698 4.5133 16.3563 3.94553 15.6293 3.94553H13.8651V6.55947C13.8651 6.88318 13.603 7.14521 13.2793 7.14521C12.956 7.14521 12.6936 6.88318 12.6936 6.55947V3.94553H7.30487V6.55947C7.30487 6.88318 7.04245 7.14521 6.71913 7.14521C6.39541 7.14521 6.13338 6.88318 6.13338 6.55947V3.94553H4.36916C3.64209 3.94553 3.02862 4.5133 2.97319 5.23685L2.07975 16.4942C2.01065 17.3959 2.32342 18.2932 2.93764 18.9563C3.5519 19.6193 4.42268 20 5.32666 20H14.6718C15.5758 20 16.4466 19.6193 17.0608 18.9562C17.6751 18.2932 17.9878 17.3958 17.9183 16.4927ZM12.6381 10.7615L9.60873 13.7909C9.49432 13.9053 9.34436 13.9627 9.19444 13.9627C9.04448 13.9627 8.89455 13.9053 8.78014 13.7909L7.36034 12.3711C7.13151 12.1422 7.13151 11.7717 7.36034 11.5428C7.58916 11.314 7.96014 11.314 8.18858 11.5428L9.19448 12.5483L11.8099 9.93287C12.0384 9.70443 12.4094 9.70443 12.6382 9.93287C12.867 10.1617 12.867 10.5326 12.6381 10.7615Z" fill="black"/>
<path d="M10.0006 0C7.86891 0 6.13477 1.73453 6.13477 3.86621V3.94547H7.30625V3.86621C7.30625 2.38039 8.5148 1.17145 10.0006 1.17145C11.4864 1.17145 12.695 2.38039 12.695 3.86621V3.94547H13.8664V3.86621C13.8664 1.73453 12.1323 0 10.0006 0Z" fill="black"/>
</g>
<defs>
<clipPath id="clip0_56_3204">
<rect width="20" height="20" fill="white"/>
</clipPath>
</defs>
</svg>
