<svg width="15" height="14" viewBox="0 0 15 14" fill="none" xmlns="http://www.w3.org/2000/svg">
<g clip-path="url(#clip0_8_85)">
<path d="M9.37426 0.686585C8.85176 0.240289 8.18716 -0.00491333 7.5 -0.00491333C6.81285 -0.00491333 6.14825 0.240289 5.62575 0.686585C2.0785 3.63475 -1.03416 7.86975 2.96284 12.1205C4.17009 13.3164 5.80069 13.9873 7.5 13.9873C9.19932 13.9873 10.8299 13.3164 12.0372 12.1205C16.0377 7.84117 12.925 3.64992 9.37426 0.686585ZM5.16667 5.83334C5.16667 5.67863 5.22813 5.53025 5.33753 5.42086C5.44692 5.31146 5.59529 5.25 5.75 5.25C5.90471 5.25 6.05309 5.31146 6.16248 5.42086C6.27188 5.53025 6.33334 5.67863 6.33334 5.83334C6.33334 5.98805 6.27188 6.13642 6.16248 6.24582C6.05309 6.35521 5.90471 6.41667 5.75 6.41667C5.59529 6.41667 5.44692 6.35521 5.33753 6.24582C5.22813 6.13642 5.16667 5.98805 5.16667 5.83334ZM6.81867 9.65709C6.73281 9.78581 6.59933 9.87514 6.44759 9.90545C6.29586 9.93575 6.13831 9.90454 6.00959 9.81867C5.88087 9.73281 5.79153 9.59933 5.76123 9.4476C5.73093 9.29586 5.76214 9.13831 5.848 9.00959L8.18134 5.50959C8.2672 5.38087 8.40068 5.29153 8.55241 5.26123C8.70415 5.23093 8.8617 5.26214 8.99042 5.348C9.11914 5.43387 9.20848 5.56735 9.23878 5.71908C9.26908 5.87081 9.23787 6.02837 9.15201 6.15709L6.81867 9.65709ZM9.25 9.91667C9.0953 9.91667 8.94692 9.85522 8.83753 9.74582C8.72813 9.63642 8.66667 9.48805 8.66667 9.33334C8.66667 9.17863 8.72813 9.03026 8.83753 8.92086C8.94692 8.81146 9.0953 8.75 9.25 8.75C9.40471 8.75 9.55309 8.81146 9.66248 8.92086C9.77188 9.03026 9.83334 9.17863 9.83334 9.33334C9.83334 9.48805 9.77188 9.63642 9.66248 9.74582C9.55309 9.85522 9.40471 9.91667 9.25 9.91667Z" fill="white"/>
</g>
<defs>
<clipPath id="clip0_8_85">
<rect width="14" height="14" fill="white" transform="translate(0.5)"/>
</clipPath>
</defs>
</svg>
