<svg width="22" height="20" viewBox="0 0 22 20" fill="none" xmlns="http://www.w3.org/2000/svg">
<path d="M0.379666 9.34883L5.75958 12.0301C5.96767 12.1328 6.21333 12.1254 6.41225 12.009L11.2009 9.22508L8.30241 11.7936C8.15483 11.9247 8.0705 12.1117 8.0705 12.3088V18.565C8.0705 19.225 8.91292 19.5027 9.308 18.9784L11.6336 15.8865L17.3847 19.1617C17.7881 19.3937 18.3051 19.1608 18.3986 18.6997L21.9855 0.824751C22.0927 0.287585 21.5583 -0.150582 21.0615 0.0492516L0.4365 8.093C-0.117167 8.30933 -0.152917 9.08392 0.379666 9.34883ZM20.3905 1.78725L17.2381 17.4962L11.7885 14.3923C11.4915 14.2228 11.1092 14.2979 10.8984 14.5766L9.4455 16.508V12.6177L17.2839 5.673C17.9045 5.12392 17.1913 4.14767 16.4827 4.56383L6.04192 10.634L2.38258 8.81075L20.3905 1.78725Z" fill="black"/>
</svg>
