<svg width="22" height="21" viewBox="0 0 22 21" fill="none" xmlns="http://www.w3.org/2000/svg">
<path d="M0.380429 10.2629L5.76034 12.9441C5.96843 13.0468 6.2141 13.0395 6.41301 12.9231L11.2017 10.1391L8.30318 12.7076C8.15559 12.8387 8.07126 13.0257 8.07126 13.2228V19.4791C8.07126 20.1391 8.91368 20.4168 9.30876 19.8925L11.6343 16.8006L17.3855 20.0758C17.7888 20.3077 18.3058 20.0749 18.3993 19.6138L21.9863 1.73881C22.0935 1.20165 21.5591 0.763481 21.0623 0.963314L0.437263 9.00706C-0.116404 9.2234 -0.152154 9.99798 0.380429 10.2629ZM20.3913 2.70131L17.2388 18.4102L11.7893 15.3064C11.4923 15.1368 11.11 15.212 10.8992 15.4906L9.44626 17.4221V13.5317L17.2847 6.58706C17.9053 6.03798 17.1921 5.06173 16.4835 5.4779L6.04268 11.5481L2.38335 9.72481L20.3913 2.70131Z" fill="black"/>
</svg>
