<svg width="14" height="14" viewBox="0 0 14 14" fill="none" xmlns="http://www.w3.org/2000/svg">
<path d="M7.00017 7.27001C7.82975 7.27001 8.63984 6.76665 9.28121 5.85265C9.84724 5.04606 10.1851 4.04879 10.1851 3.18496C10.1852 1.42878 8.75635 0 7.00017 0C5.24398 0 3.8152 1.42878 3.8152 3.18496C3.8152 4.04879 4.15309 5.04606 4.71912 5.85265C5.36049 6.76665 6.17058 7.27001 7.00017 7.27001ZM7.00017 0.519356C8.46998 0.519356 9.66578 1.71515 9.66578 3.18496C9.66578 3.93474 9.35552 4.84261 8.8561 5.55433C8.32259 6.3146 7.64614 6.75065 7.00017 6.75065C6.35419 6.75065 5.67775 6.3146 5.14423 5.55433C4.64482 4.84261 4.33456 3.93474 4.33456 3.18496C4.33456 1.71515 5.53036 0.519356 7.00017 0.519356Z" fill="#929292"/>
<path d="M11.6673 8.69449C11.1061 7.82356 10.3161 7.12835 9.38258 6.68396C9.28342 6.63676 9.16536 6.65702 9.08759 6.73454C8.46191 7.3585 7.74004 7.68825 7.00002 7.68825C6.25991 7.68825 5.53814 7.3585 4.91284 6.73458C4.83507 6.65699 4.71693 6.6367 4.61781 6.68392C3.68428 7.12832 2.89417 7.82356 2.33292 8.69445C1.7564 9.58903 1.45168 10.6269 1.45168 11.6958V11.7003C1.45168 11.7736 1.48263 11.8435 1.53688 11.8927C3.03526 13.2516 4.97544 14 6.99999 14C9.02454 14 10.9647 13.2516 12.4631 11.8927C12.5173 11.8435 12.5483 11.7736 12.5483 11.7003V11.6958C12.5484 10.6269 12.2437 9.58903 11.6673 8.69449ZM7.00002 13.4806C5.14346 13.4806 3.36263 12.8083 1.97224 11.5852C1.99243 10.6554 2.26703 9.75546 2.76949 8.97581C3.24615 8.23621 3.90473 7.63635 4.68165 7.23226C5.37569 7.87117 6.17373 8.20761 7.00002 8.20761C7.82618 8.20761 8.62436 7.8711 9.31874 7.23222C10.0956 7.63628 10.7542 8.23617 11.2307 8.97577C11.7331 9.75539 12.0076 10.6553 12.0278 11.5852C10.6374 12.8083 8.85658 13.4806 7.00002 13.4806Z" fill="#929292"/>
</svg>
