<svg width="22" height="14" viewBox="0 0 22 14" fill="none" xmlns="http://www.w3.org/2000/svg">
<path d="M11.1329 13.9609C14.3156 13.9609 13.1808 11.9461 13.4264 11.3668C13.4228 10.9341 13.4191 10.5179 13.4338 10.2649C13.6354 10.3218 14.1112 10.5629 15.0938 11.518C16.6109 13.0488 16.9987 13.9609 18.2243 13.9609H20.4802C21.1952 13.9609 21.5673 13.6649 21.7534 13.4164C21.9331 13.1763 22.1091 12.7546 21.9166 12.0983C21.4133 10.5179 18.4782 7.78902 18.2958 7.50119C18.3233 7.44802 18.3673 7.37744 18.3902 7.34077H18.3883C18.9677 6.57535 21.1787 3.26252 21.5041 1.93702C21.505 1.93519 21.5059 1.93244 21.5059 1.92969C21.6819 1.32469 21.5206 0.932354 21.3538 0.710521C21.1026 0.378688 20.7029 0.210938 20.163 0.210938H17.9071C17.1518 0.210938 16.5788 0.591354 16.2892 1.28527C15.8043 2.51819 14.4421 5.05369 13.4209 5.9511C13.3898 4.67969 13.4108 3.70894 13.4273 2.98752C13.4603 1.58044 13.5667 0.210938 12.1064 0.210938H8.56075C7.64592 0.210938 6.7705 1.2101 7.71834 2.39627C8.547 3.43577 8.01625 4.0151 8.195 6.89894C7.49834 6.15185 6.259 4.13427 5.38267 1.55569C5.137 0.858104 4.76484 0.211854 3.71708 0.211854H1.46117C0.546334 0.211854 0 0.710521 0 1.5456C0 3.4211 4.15159 13.9609 11.1329 13.9609V13.9609ZM3.71708 1.58685C3.916 1.58685 3.93617 1.58685 4.08375 2.00577C4.98117 4.64852 6.99417 8.55902 8.4645 8.55902C9.56909 8.55902 9.56909 7.42693 9.56909 7.00069L9.56817 3.60719C9.50767 2.48427 9.09884 1.9251 8.83025 1.58594L12.0459 1.5896C12.0478 1.60519 12.0276 5.34335 12.0551 6.24902C12.0551 7.5351 13.0763 8.2721 14.6703 6.65877C16.3524 4.76035 17.5157 1.92235 17.5624 1.80685C17.6312 1.64185 17.6908 1.58594 17.9071 1.58594H20.163H20.1722C20.1713 1.58869 20.1713 1.59144 20.1703 1.59419C19.9641 2.55669 17.9282 5.62385 17.2471 6.57627C17.2361 6.59094 17.226 6.60652 17.2159 6.6221C16.9162 7.1116 16.6723 7.65244 17.2572 8.41327H17.2581C17.3113 8.47743 17.4497 8.62777 17.6513 8.83677C18.2783 9.48393 20.4288 11.6968 20.6195 12.5768C20.493 12.5969 20.3555 12.5823 18.2243 12.5868C17.7705 12.5868 17.4158 11.9085 16.0618 10.5427C14.8445 9.35835 14.0543 8.87435 13.3348 8.87435C11.9378 8.87435 12.0395 10.0083 12.0523 11.3796C12.0569 12.8664 12.0478 12.3962 12.0578 12.4897C11.9763 12.5218 11.7425 12.5859 11.1329 12.5859C5.31667 12.5859 1.529 3.35419 1.38325 1.5896C1.43367 1.58502 2.12758 1.58777 3.71708 1.58685V1.58685Z" fill="black"/>
</svg>
